<?xml version="1.0" encoding="UTF-8"?>
<svg xmlns="http://www.w3.org/2000/svg" xmlns:xlink="http://www.w3.org/1999/xlink" width="20px" height="20px" viewBox="0 0 20 20" version="1.1">
<defs>
<clipPath id="clip1">
  <path d="M 0 0.0234375 L 19.976562 0.0234375 L 19.976562 20 L 0 20 Z M 0 0.0234375 "/>
</clipPath>
</defs>
<g id="surface1">
<g clip-path="url(#clip1)" clip-rule="nonzero">
<path style=" stroke:none;fill-rule:nonzero;fill:rgb(94.117647%,23.529412%,18.039216%);fill-opacity:1;" d="M 19.597656 9.121094 L 10.878906 0.402344 C 10.375 -0.101562 9.558594 -0.101562 9.058594 0.402344 L 7.246094 2.214844 L 9.542969 4.511719 C 10.09375 4.324219 10.703125 4.464844 11.117188 4.875 C 11.53125 5.289062 11.671875 5.90625 11.476562 6.457031 L 13.691406 8.671875 C 14.246094 8.480469 14.859375 8.621094 15.273438 9.035156 C 15.871094 9.632812 15.871094 10.601562 15.273438 11.199219 C 14.675781 11.796875 13.707031 11.796875 13.109375 11.199219 C 12.671875 10.761719 12.542969 10.105469 12.777344 9.535156 L 10.710938 7.46875 L 10.710938 12.90625 C 11.152344 13.121094 11.464844 13.542969 11.542969 14.027344 C 11.625 14.515625 11.464844 15.011719 11.117188 15.359375 C 10.519531 15.957031 9.550781 15.957031 8.953125 15.359375 C 8.351562 14.761719 8.351562 13.792969 8.953125 13.195312 C 9.09375 13.050781 9.265625 12.9375 9.453125 12.859375 L 9.453125 7.375 C 9.074219 7.21875 8.777344 6.921875 8.621094 6.542969 C 8.464844 6.167969 8.464844 5.742188 8.621094 5.367188 L 6.355469 3.101562 L 0.375 9.082031 C -0.125 9.585938 -0.125 10.398438 0.375 10.902344 L 9.097656 19.625 C 9.601562 20.125 10.414062 20.125 10.917969 19.625 L 19.597656 10.941406 C 20.101562 10.441406 20.101562 9.625 19.597656 9.121094 "/>
</g>
</g>
</svg>
