<?xml version="1.0" encoding="UTF-8"?>
<svg xmlns="http://www.w3.org/2000/svg" xmlns:xlink="http://www.w3.org/1999/xlink" width="56px" height="56px" viewBox="0 0 56 56" version="1.1">
<defs>
<clipPath id="clip1">
  <path d="M 0 0.0703125 L 55.929688 0.0703125 L 55.929688 56 L 0 56 Z M 0 0.0703125 "/>
</clipPath>
</defs>
<g id="surface1">
<g clip-path="url(#clip1)" clip-rule="nonzero">
<path style=" stroke:none;fill-rule:nonzero;fill:rgb(94.117647%,23.529412%,18.039216%);fill-opacity:1;" d="M 54.878906 25.542969 L 30.457031 1.125 C 29.050781 -0.28125 26.769531 -0.28125 25.359375 1.125 L 20.292969 6.195312 L 26.722656 12.628906 C 28.265625 12.105469 29.972656 12.5 31.125 13.652344 C 32.28125 14.8125 32.675781 16.535156 32.140625 18.082031 L 38.339844 24.28125 C 39.890625 23.742188 41.609375 24.136719 42.769531 25.300781 C 44.445312 26.972656 44.445312 29.6875 42.769531 31.359375 C 41.09375 33.035156 38.378906 33.035156 36.703125 31.359375 C 35.484375 30.136719 35.117188 28.296875 35.773438 26.699219 L 29.992188 20.917969 L 29.992188 36.132812 C 31.230469 36.742188 32.097656 37.914062 32.324219 39.277344 C 32.546875 40.640625 32.101562 42.027344 31.125 43.003906 C 29.449219 44.679688 26.738281 44.679688 25.0625 43.003906 C 23.390625 41.332031 23.390625 38.617188 25.0625 36.941406 C 25.464844 36.542969 25.941406 36.222656 26.464844 36.007812 L 26.464844 20.652344 C 25.410156 20.214844 24.570312 19.378906 24.136719 18.324219 C 23.699219 17.269531 23.699219 16.082031 24.140625 15.03125 L 17.800781 8.6875 L 1.054688 25.429688 C -0.351562 26.835938 -0.351562 29.117188 1.054688 30.523438 L 25.476562 54.945312 C 26.882812 56.351562 29.164062 56.351562 30.570312 54.945312 L 54.878906 30.640625 C 56.28125 29.230469 56.28125 26.953125 54.878906 25.542969 "/>
</g>
</g>
</svg>
