<?xml version="1.0" encoding="UTF-8"?>
<svg xmlns="http://www.w3.org/2000/svg" xmlns:xlink="http://www.w3.org/1999/xlink" width="px" height="20px" viewBox="0 0 29 20" version="1.1">
<defs>
<clipPath id="clip1">
  <path d="M 4 0 L 12 0 L 12 10 L 4 10 Z M 4 0 "/>
</clipPath>
<clipPath id="clip2">
  <path d="M 4.035156 2.746094 C 4.035156 2.746094 5.441406 1.191406 6.414062 0.550781 C 6.726562 0.34375 9.03125 -0.867188 10.511719 3.300781 C 11.324219 5.582031 11.335938 7.285156 9.496094 8.007812 C 8.390625 8.441406 8.785156 9.253906 8.785156 9.253906 "/>
</clipPath>
<linearGradient id="linear0" gradientUnits="userSpaceOnUse" x1="0" y1="0" x2="1" y2="0" gradientTransform="matrix(9.583885,7.124963,-7.142354,9.560549,11.691224,7.104908)">
<stop offset="0" style="stop-color:rgb(54.901961%,60.784314%,83.921569%);stop-opacity:1;"/>
<stop offset="1" style="stop-color:rgb(31.372549%,36.862745%,60.784314%);stop-opacity:1;"/>
</linearGradient>
<clipPath id="clip3">
  <path d="M 22 3 L 27 3 L 27 5 L 22 5 Z M 22 3 "/>
</clipPath>
<clipPath id="clip4">
  <path d="M 22.9375 3.644531 L 25.890625 3.644531 C 26.136719 3.644531 26.335938 3.808594 26.335938 4.007812 C 26.335938 4.210938 26.136719 4.375 25.890625 4.375 L 23.574219 4.375 Z M 22.9375 3.644531 "/>
</clipPath>
<linearGradient id="linear1" gradientUnits="userSpaceOnUse" x1="0" y1="0" x2="1" y2="0" gradientTransform="matrix(9.663565,7.184204,-7.201739,9.640035,17.959281,-1.089794)">
<stop offset="0" style="stop-color:rgb(50.196078%,56.078431%,81.568627%);stop-opacity:1;"/>
<stop offset="1" style="stop-color:rgb(31.372549%,36.862745%,60.784314%);stop-opacity:1;"/>
</linearGradient>
<clipPath id="clip5">
  <path d="M 6 10 L 13 10 L 13 19 L 6 19 Z M 6 10 "/>
</clipPath>
<clipPath id="clip6">
  <path d="M 12.65625 10.910156 L 12.65625 16.792969 C 12.65625 18.246094 11.214844 18.765625 9.433594 18.765625 C 7.65625 18.765625 6.214844 18.246094 6.214844 16.792969 L 6.214844 10.84375 "/>
</clipPath>
<linearGradient id="linear2" gradientUnits="userSpaceOnUse" x1="0" y1="0" x2="1" y2="0" gradientTransform="matrix(9.541855,7.093717,-7.111032,9.518621,7.354693,12.735432)">
<stop offset="0" style="stop-color:rgb(54.901961%,60.784314%,83.921569%);stop-opacity:1;"/>
<stop offset="1" style="stop-color:rgb(31.372549%,36.862745%,60.784314%);stop-opacity:1;"/>
</linearGradient>
<clipPath id="clip7">
  <path d="M 16 10 L 23 10 L 23 19 L 16 19 Z M 16 10 "/>
</clipPath>
<clipPath id="clip8">
  <path d="M 22.515625 10.984375 L 22.515625 16.867188 C 22.515625 18.316406 21.074219 18.835938 19.292969 18.835938 C 17.511719 18.835938 16.070312 18.316406 16.070312 16.867188 L 16.070312 10.914062 "/>
</clipPath>
<linearGradient id="linear3" gradientUnits="userSpaceOnUse" x1="0" y1="0" x2="1" y2="0" gradientTransform="matrix(9.541756,7.093652,-7.110966,9.518523,10.944965,8.148212)">
<stop offset="0" style="stop-color:rgb(54.901961%,60.784314%,83.921569%);stop-opacity:1;"/>
<stop offset="1" style="stop-color:rgb(31.372549%,36.862745%,60.784314%);stop-opacity:1;"/>
</linearGradient>
<clipPath id="clip9">
  <path d="M 8 2 L 11 2 L 11 9 L 8 9 Z M 8 2 "/>
</clipPath>
<clipPath id="clip10">
  <path d="M 9.945312 2.878906 C 11.203125 4.914062 11.066406 6.632812 9.394531 7.535156 C 8.394531 8.074219 8.945312 8.785156 8.945312 8.785156 "/>
</clipPath>
<linearGradient id="linear4" gradientUnits="userSpaceOnUse" x1="0" y1="0" x2="1" y2="0" gradientTransform="matrix(9.262195,6.885814,-6.902622,9.239642,11.438979,7.313064)">
<stop offset="0" style="stop-color:rgb(50.196078%,56.078431%,81.568627%);stop-opacity:1;"/>
<stop offset="1" style="stop-color:rgb(31.372549%,36.862745%,60.784314%);stop-opacity:1;"/>
</linearGradient>
<clipPath id="clip11">
  <path d="M 0 1 L 25 1 L 25 20 L 0 20 Z M 0 1 "/>
</clipPath>
<clipPath id="clip12">
  <path d="M 17.277344 1.433594 C 17.277344 1.433594 15.195312 1.410156 7.582031 1.660156 C -0.03125 1.914062 0.25 4.636719 0.238281 8.546875 L 0.238281 17.953125 C 0.238281 18.75 0.929688 19.070312 1.78125 19.070312 C 2.632812 19.070312 3.328125 18.75 3.328125 17.953125 C 3.328125 17.953125 3.523438 15.265625 3.691406 13.628906 C 4.074219 7.691406 11.261719 14.605469 16.484375 14.285156 C 21.234375 13.992188 24.972656 12.355469 24.972656 8.46875 C 24.972656 4.585938 22.519531 1.433594 17.277344 1.433594 Z M 17.277344 1.433594 "/>
</clipPath>
<linearGradient id="linear5" gradientUnits="userSpaceOnUse" x1="0" y1="0" x2="1" y2="0" gradientTransform="matrix(9.632331,7.160984,-7.178463,9.608877,9.845815,9.592457)">
<stop offset="0" style="stop-color:rgb(54.901961%,60.784314%,83.921569%);stop-opacity:1;"/>
<stop offset="1" style="stop-color:rgb(31.372549%,36.862745%,60.784314%);stop-opacity:1;"/>
</linearGradient>
<clipPath id="clip13">
  <path d="M 0 8 L 1 8 L 1 18 L 0 18 Z M 0 8 "/>
</clipPath>
<clipPath id="clip14">
  <path d="M 0.445312 8.804688 C 0.453125 9.6875 0.328125 17.402344 0.816406 17.867188 C 0.664062 17.523438 1 10.050781 0.996094 9.582031 L 0.992188 9.304688 C 0.992188 9.175781 0.992188 9.046875 0.992188 8.917969 C 0.804688 8.847656 0.621094 8.761719 0.445312 8.664062 Z M 0.445312 8.804688 "/>
</clipPath>
<linearGradient id="linear6" gradientUnits="userSpaceOnUse" x1="0" y1="0" x2="1" y2="0" gradientTransform="matrix(6.377639,9.272447,-9.295079,6.362109,-3.34748,7.212829)">
<stop offset="0" style="stop-color:rgb(98.039216%,98.039216%,99.215686%);stop-opacity:1;"/>
<stop offset="1" style="stop-color:rgb(53.333333%,57.254902%,82.352941%);stop-opacity:1;"/>
</linearGradient>
<clipPath id="clip15">
  <path d="M 0 1 L 24 1 L 24 9 L 0 9 Z M 0 1 "/>
</clipPath>
<clipPath id="clip16">
  <path d="M 17.273438 1.691406 C 17.273438 1.691406 15.238281 1.667969 7.789062 1.914062 C 0.339844 2.160156 0.453125 4.898438 0.453125 8.578125 L 0.457031 8.714844 C 0.628906 8.8125 0.808594 8.898438 0.988281 8.96875 C 0.992188 5.484375 1.140625 2.929688 8.324219 2.691406 C 15.773438 2.445312 17.8125 2.46875 17.8125 2.46875 C 20.660156 2.46875 22.621094 3.429688 23.839844 4.925781 C 22.71875 2.988281 20.589844 1.691406 17.273438 1.691406 Z M 17.273438 1.691406 "/>
</clipPath>
<linearGradient id="linear7" gradientUnits="userSpaceOnUse" x1="0" y1="0" x2="1" y2="0" gradientTransform="matrix(7.431402,10.804521,-10.830893,7.413307,7.153183,-0.458301)">
<stop offset="0" style="stop-color:rgb(98.039216%,98.039216%,99.215686%);stop-opacity:1;"/>
<stop offset="1" style="stop-color:rgb(53.333333%,57.254902%,82.352941%);stop-opacity:1;"/>
</linearGradient>
<clipPath id="clip17">
  <path d="M 8 11 L 15 11 L 15 20 L 8 20 Z M 8 11 "/>
</clipPath>
<clipPath id="clip18">
  <path d="M 14.679688 13.609375 L 14.679688 17.800781 C 14.679688 19.25 13.238281 19.769531 11.457031 19.769531 C 9.679688 19.769531 8.234375 19.25 8.234375 17.800781 L 8.234375 11.421875 "/>
</clipPath>
<linearGradient id="linear8" gradientUnits="userSpaceOnUse" x1="0" y1="0" x2="1" y2="0" gradientTransform="matrix(9.536892,7.090029,-7.107334,9.51367,7.203368,12.971583)">
<stop offset="0" style="stop-color:rgb(54.901961%,60.784314%,83.921569%);stop-opacity:1;"/>
<stop offset="1" style="stop-color:rgb(31.372549%,36.862745%,60.784314%);stop-opacity:1;"/>
</linearGradient>
<clipPath id="clip19">
  <path d="M 18 10 L 25 10 L 25 20 L 18 20 Z M 18 10 "/>
</clipPath>
<clipPath id="clip20">
  <path d="M 24.542969 10.730469 L 24.542969 17.636719 C 24.542969 19.085938 23.097656 19.605469 21.320312 19.605469 C 19.539062 19.605469 18.097656 19.085938 18.097656 17.636719 L 18.097656 13.667969 "/>
</clipPath>
<linearGradient id="linear9" gradientUnits="userSpaceOnUse" x1="0" y1="0" x2="1" y2="0" gradientTransform="matrix(9.57004,7.114676,-7.132042,9.546738,11.518218,7.327117)">
<stop offset="0" style="stop-color:rgb(54.901961%,60.784314%,83.921569%);stop-opacity:1;"/>
<stop offset="1" style="stop-color:rgb(31.372549%,36.862745%,60.784314%);stop-opacity:1;"/>
</linearGradient>
<clipPath id="clip21">
  <path d="M 6 0 L 13 0 L 13 11 L 6 11 Z M 6 0 "/>
</clipPath>
<clipPath id="clip22">
  <path d="M 6.292969 2.144531 C 6.292969 2.144531 8.179688 0.851562 9.375 0.40625 C 9.753906 0.265625 12.496094 -0.457031 12.941406 4.265625 C 13.183594 6.851562 12.746094 8.636719 10.621094 8.960938 C 9.347656 9.15625 9.546875 10.101562 9.546875 10.101562 "/>
</clipPath>
<linearGradient id="linear10" gradientUnits="userSpaceOnUse" x1="0" y1="0" x2="1" y2="0" gradientTransform="matrix(9.555348,7.103752,-7.121091,9.532081,12.089512,6.586715)">
<stop offset="0" style="stop-color:rgb(54.901961%,60.784314%,83.921569%);stop-opacity:1;"/>
<stop offset="1" style="stop-color:rgb(31.372549%,36.862745%,60.784314%);stop-opacity:1;"/>
</linearGradient>
<clipPath id="clip23">
  <path d="M 5 0 L 12 0 L 12 4 L 5 4 Z M 5 0 "/>
</clipPath>
<clipPath id="clip24">
  <path d="M 8.226562 1.804688 C 10.363281 0.46875 11.546875 1.152344 11.546875 1.152344 C 10.621094 0.304688 9.574219 0.585938 9.34375 0.671875 C 8.15625 1.113281 5.859375 2.753906 5.859375 2.753906 C 5.859375 2.753906 5.550781 3.304688 6.167969 3.183594 C 6.167969 3.183594 7.511719 2.246094 8.226562 1.804688 Z M 8.226562 1.804688 "/>
</clipPath>
<linearGradient id="linear11" gradientUnits="userSpaceOnUse" x1="0" y1="0" x2="1" y2="0" gradientTransform="matrix(7.594943,11.042352,-11.069305,7.57645,6.973112,-0.344123)">
<stop offset="0" style="stop-color:rgb(98.039216%,98.039216%,99.215686%);stop-opacity:1;"/>
<stop offset="1" style="stop-color:rgb(53.333333%,57.254902%,82.352941%);stop-opacity:1;"/>
</linearGradient>
</defs>
<g id="surface1">
<g clip-path="url(#clip1)" clip-rule="nonzero">
<g clip-path="url(#clip2)" clip-rule="nonzero">
<path style=" stroke:none;fill-rule:nonzero;fill:url(#linear0);" d="M 4.035156 2.746094 C 4.035156 2.746094 5.441406 1.191406 6.414062 0.550781 C 6.726562 0.34375 9.03125 -0.867188 10.511719 3.300781 C 11.324219 5.582031 11.335938 7.285156 9.496094 8.007812 C 8.390625 8.441406 8.785156 9.253906 8.785156 9.253906 "/>
</g>
</g>
<path style=" stroke:none;fill-rule:nonzero;fill:rgb(21.176471%,19.607843%,32.941176%);fill-opacity:1;" d="M 6.28125 0.359375 C 5.292969 1.011719 3.914062 2.53125 3.855469 2.59375 C 3.769531 2.691406 3.78125 2.835938 3.878906 2.917969 C 3.976562 3 4.128906 2.992188 4.214844 2.894531 C 4.226562 2.878906 5.613281 1.359375 6.550781 0.738281 C 6.578125 0.71875 7.261719 0.277344 8.09375 0.542969 C 8.96875 0.824219 9.730469 1.800781 10.289062 3.375 C 11.175781 5.878906 10.914062 7.203125 9.40625 7.796875 C 8.96875 7.96875 8.683594 8.214844 8.554688 8.535156 C 8.382812 8.957031 8.5625 9.335938 8.570312 9.351562 C 8.625 9.464844 8.765625 9.515625 8.882812 9.460938 C 9.003906 9.410156 9.054688 9.277344 9.003906 9.160156 C 9 9.160156 8.898438 8.933594 9 8.695312 C 9.082031 8.5 9.277344 8.339844 9.585938 8.21875 C 11.859375 7.324219 11.398438 5.082031 10.738281 3.226562 C 10.121094 1.488281 9.28125 0.441406 8.242188 0.109375 C 7.207031 -0.222656 6.371094 0.300781 6.28125 0.359375 "/>
<g clip-path="url(#clip3)" clip-rule="nonzero">
<g clip-path="url(#clip4)" clip-rule="nonzero">
<path style=" stroke:none;fill-rule:nonzero;fill:url(#linear1);" d="M 22.9375 3.644531 L 25.890625 3.644531 C 26.136719 3.644531 26.335938 3.808594 26.335938 4.007812 C 26.335938 4.210938 26.136719 4.375 25.890625 4.375 L 23.574219 4.375 L 22.9375 3.644531 "/>
</g>
</g>
<path style=" stroke:none;fill-rule:nonzero;fill:rgb(21.176471%,19.607843%,32.941176%);fill-opacity:1;" d="M 25.890625 3.871094 C 26.011719 3.871094 26.097656 3.945312 26.097656 4.007812 C 26.097656 4.074219 26.011719 4.144531 25.890625 4.144531 C 25.890625 4.144531 23.886719 4.144531 23.683594 4.144531 C 23.636719 4.089844 23.566406 4.007812 23.445312 3.871094 C 24.144531 3.871094 25.890625 3.871094 25.890625 3.871094 Z M 22.429688 3.414062 L 23.460938 4.605469 L 25.890625 4.605469 C 26.269531 4.605469 26.574219 4.335938 26.574219 4.007812 C 26.574219 3.679688 26.269531 3.414062 25.890625 3.414062 L 22.429688 3.414062 "/>
<path style=" stroke:none;fill-rule:nonzero;fill:rgb(54.509804%,61.568627%,84.313725%);fill-opacity:1;" d="M 26.804688 2.792969 C 27.207031 2.601562 27.683594 2.648438 27.863281 2.898438 C 28.042969 3.152344 27.859375 3.511719 27.453125 3.703125 C 27.050781 3.898438 25.988281 4.128906 25.808594 3.878906 C 25.625 3.625 26.398438 2.988281 26.804688 2.792969 "/>
<path style=" stroke:none;fill-rule:nonzero;fill:rgb(21.176471%,19.607843%,32.941176%);fill-opacity:1;" d="M 26.910156 3 C 27.222656 2.851562 27.570312 2.890625 27.667969 3.03125 C 27.695312 3.066406 27.703125 3.113281 27.6875 3.164062 C 27.660156 3.261719 27.558594 3.398438 27.347656 3.5 C 26.957031 3.683594 26.261719 3.792969 26.046875 3.742188 C 26.125 3.5625 26.5625 3.164062 26.910156 3 Z M 26.699219 2.589844 C 26.359375 2.75 25.667969 3.261719 25.558594 3.667969 L 25.609375 4.007812 C 25.9375 4.464844 27.253906 4.054688 27.558594 3.910156 C 27.863281 3.765625 28.078125 3.535156 28.148438 3.28125 C 28.195312 3.097656 28.164062 2.917969 28.058594 2.769531 C 27.8125 2.421875 27.214844 2.34375 26.699219 2.589844 "/>
<path style=" stroke:none;fill-rule:nonzero;fill:rgb(54.509804%,61.568627%,84.313725%);fill-opacity:1;" d="M 27.523438 4.277344 C 27.960938 4.421875 28.203125 4.757812 28.066406 5.027344 C 27.933594 5.296875 27.46875 5.398438 27.035156 5.25 C 26.601562 5.105469 25.726562 4.5625 25.863281 4.292969 C 26 4.023438 27.089844 4.132812 27.523438 4.277344 "/>
<path style=" stroke:none;fill-rule:nonzero;fill:rgb(21.176471%,19.607843%,32.941176%);fill-opacity:1;" d="M 27.601562 4.0625 Z M 27.445312 4.492188 C 27.679688 4.570312 27.808594 4.703125 27.847656 4.796875 C 27.882812 4.871094 27.859375 4.914062 27.851562 4.929688 C 27.78125 5.070312 27.449219 5.148438 27.113281 5.035156 C 26.730469 4.90625 26.214844 4.546875 26.117188 4.382812 C 26.296875 4.320312 27.027344 4.351562 27.445312 4.492188 Z M 25.648438 4.191406 L 25.648438 4.527344 C 25.816406 4.914062 26.589844 5.34375 26.957031 5.46875 C 27.511719 5.652344 28.09375 5.503906 28.28125 5.128906 C 28.320312 5.046875 28.34375 4.957031 28.34375 4.871094 C 28.34375 4.789062 28.324219 4.703125 28.289062 4.621094 C 28.183594 4.375 27.933594 4.171875 27.601562 4.0625 C 27.273438 3.949219 25.898438 3.695312 25.648438 4.191406 "/>
<path style=" stroke:none;fill-rule:nonzero;fill:rgb(54.509804%,61.568627%,84.313725%);fill-opacity:1;" d="M 27.585938 3.445312 C 28.234375 3.441406 28.757812 3.675781 28.761719 3.964844 C 28.765625 4.257812 28.246094 4.496094 27.597656 4.5 C 26.953125 4.503906 25.492188 4.277344 25.488281 3.988281 C 25.488281 3.695312 26.941406 3.453125 27.585938 3.445312 "/>
<path style=" stroke:none;fill-rule:nonzero;fill:rgb(21.176471%,19.607843%,32.941176%);fill-opacity:1;" d="M 28.523438 3.96875 C 28.523438 3.980469 28.511719 4 28.484375 4.027344 C 28.367188 4.144531 28.039062 4.269531 27.597656 4.269531 C 27.042969 4.273438 26.167969 4.125 25.832031 3.984375 C 26.164062 3.839844 27.035156 3.679688 27.589844 3.675781 C 28.199219 3.671875 28.523438 3.890625 28.523438 3.96875 Z M 27.585938 3.21875 C 27.117188 3.222656 25.722656 3.386719 25.367188 3.734375 L 25.25 3.992188 C 25.257812 4.664062 27.578125 4.730469 27.601562 4.730469 C 28.121094 4.726562 28.589844 4.582031 28.824219 4.351562 C 28.941406 4.234375 29 4.101562 29 3.964844 C 28.996094 3.527344 28.402344 3.210938 27.585938 3.21875 "/>
<g clip-path="url(#clip5)" clip-rule="nonzero">
<g clip-path="url(#clip6)" clip-rule="nonzero">
<path style=" stroke:none;fill-rule:nonzero;fill:url(#linear2);" d="M 12.65625 10.910156 L 12.65625 16.792969 C 12.65625 18.246094 11.214844 18.765625 9.433594 18.765625 C 7.65625 18.765625 6.214844 18.246094 6.214844 16.792969 L 6.214844 10.84375 "/>
</g>
</g>
<path style=" stroke:none;fill-rule:nonzero;fill:rgb(21.176471%,19.607843%,32.941176%);fill-opacity:1;" d="M 5.976562 10.84375 L 5.976562 16.792969 C 5.976562 18.210938 7.203125 18.992188 9.433594 18.992188 C 11.667969 18.992188 12.894531 18.210938 12.894531 16.792969 L 12.894531 10.910156 C 12.894531 10.785156 12.789062 10.683594 12.65625 10.683594 C 12.527344 10.683594 12.417969 10.785156 12.417969 10.910156 L 12.417969 16.792969 C 12.417969 18.234375 10.796875 18.535156 9.433594 18.535156 C 8.074219 18.535156 6.453125 18.234375 6.453125 16.792969 L 6.453125 10.84375 C 6.453125 10.714844 6.34375 10.613281 6.214844 10.613281 C 6.082031 10.613281 5.976562 10.714844 5.976562 10.84375 "/>
<path style=" stroke:none;fill-rule:nonzero;fill:rgb(54.509804%,61.568627%,84.313725%);fill-opacity:1;" d="M 7.625 16.789062 C 7.625 17.375 7.285156 17.851562 6.863281 17.851562 C 6.441406 17.851562 6.101562 17.375 6.101562 16.789062 C 6.101562 16.199219 6.441406 14.871094 6.863281 14.871094 C 7.285156 14.871094 7.625 16.199219 7.625 16.789062 "/>
<path style=" stroke:none;fill-rule:nonzero;fill:rgb(21.176471%,19.607843%,32.941176%);fill-opacity:1;" d="M 6.179688 16.789062 C 6.179688 16.148438 6.542969 14.949219 6.863281 14.949219 C 7.183594 14.949219 7.546875 16.148438 7.546875 16.789062 C 7.546875 17.332031 7.242188 17.773438 6.863281 17.773438 C 6.488281 17.773438 6.179688 17.332031 6.179688 16.789062 Z M 6.023438 16.789062 C 6.023438 17.414062 6.398438 17.925781 6.863281 17.925781 C 7.328125 17.925781 7.703125 17.414062 7.703125 16.789062 C 7.703125 16.214844 7.371094 14.796875 6.863281 14.796875 C 6.359375 14.796875 6.023438 16.214844 6.023438 16.789062 "/>
<path style=" stroke:none;fill-rule:nonzero;fill:rgb(65.098039%,74.117647%,90.196078%);fill-opacity:1;" d="M 6.308594 16.894531 C 6.308594 16.328125 6.71875 15.308594 7.019531 15.308594 C 7.050781 15.308594 7.078125 15.324219 7.105469 15.347656 C 7.03125 15.167969 6.945312 15.046875 6.851562 15.046875 C 6.550781 15.046875 6.308594 16.328125 6.308594 16.894531 "/>
<path style=" stroke:none;fill-rule:nonzero;fill:rgb(54.509804%,61.568627%,84.313725%);fill-opacity:1;" d="M 7.984375 17.351562 C 7.984375 17.804688 7.714844 18.171875 7.378906 18.171875 C 7.042969 18.171875 6.773438 17.804688 6.773438 17.351562 C 6.773438 16.898438 7.042969 15.875 7.378906 15.875 C 7.714844 15.875 7.984375 16.898438 7.984375 17.351562 "/>
<path style=" stroke:none;fill-rule:nonzero;fill:rgb(21.176471%,19.607843%,32.941176%);fill-opacity:1;" d="M 6.851562 17.351562 C 6.851562 16.878906 7.136719 15.949219 7.378906 15.949219 C 7.621094 15.949219 7.90625 16.878906 7.90625 17.351562 C 7.90625 17.761719 7.667969 18.097656 7.378906 18.097656 C 7.089844 18.097656 6.851562 17.761719 6.851562 17.351562 Z M 6.695312 17.351562 C 6.695312 17.847656 7 18.25 7.378906 18.25 C 7.757812 18.25 8.0625 17.847656 8.0625 17.351562 C 8.0625 16.964844 7.820312 15.796875 7.378906 15.796875 C 6.9375 15.796875 6.695312 16.964844 6.695312 17.351562 "/>
<path style=" stroke:none;fill-rule:nonzero;fill:rgb(65.098039%,74.117647%,90.196078%);fill-opacity:1;" d="M 7.027344 17.082031 C 6.996094 16.757812 7.28125 16.222656 7.503906 16.183594 C 7.523438 16.179688 7.542969 16.1875 7.566406 16.195312 C 7.5 16.101562 7.425781 16.027344 7.363281 16.058594 C 7.144531 16.160156 6.996094 16.761719 7.027344 17.082031 "/>
<g clip-path="url(#clip7)" clip-rule="nonzero">
<g clip-path="url(#clip8)" clip-rule="nonzero">
<path style=" stroke:none;fill-rule:nonzero;fill:url(#linear3);" d="M 22.515625 10.984375 L 22.515625 16.867188 C 22.515625 18.316406 21.074219 18.835938 19.292969 18.835938 C 17.511719 18.835938 16.070312 18.316406 16.070312 16.867188 L 16.070312 10.914062 "/>
</g>
</g>
<path style=" stroke:none;fill-rule:nonzero;fill:rgb(21.176471%,19.607843%,32.941176%);fill-opacity:1;" d="M 15.832031 10.914062 L 15.832031 16.867188 C 15.832031 18.285156 17.0625 19.066406 19.292969 19.066406 C 20.296875 19.066406 21.101562 18.90625 21.6875 18.59375 C 22.382812 18.222656 22.753906 17.625 22.753906 16.867188 L 22.753906 10.984375 C 22.753906 10.855469 22.648438 10.753906 22.515625 10.753906 C 22.382812 10.753906 22.277344 10.855469 22.277344 10.984375 L 22.277344 16.867188 C 22.277344 17.464844 22.007812 17.898438 21.457031 18.195312 C 20.949219 18.464844 20.203125 18.605469 19.292969 18.605469 C 17.929688 18.605469 16.308594 18.304688 16.308594 16.867188 L 16.308594 10.914062 C 16.308594 10.789062 16.203125 10.683594 16.070312 10.683594 C 15.9375 10.683594 15.832031 10.789062 15.832031 10.914062 "/>
<path style=" stroke:none;fill-rule:nonzero;fill:rgb(45.490196%,51.372549%,79.215686%);fill-opacity:1;" d="M 17.484375 16.859375 C 17.484375 17.445312 17.140625 17.921875 16.722656 17.921875 C 16.300781 17.921875 15.960938 17.445312 15.960938 16.859375 C 15.960938 16.269531 16.300781 14.945312 16.722656 14.945312 C 17.140625 14.945312 17.484375 16.269531 17.484375 16.859375 "/>
<path style=" stroke:none;fill-rule:nonzero;fill:rgb(21.176471%,19.607843%,32.941176%);fill-opacity:1;" d="M 16.039062 16.859375 C 16.039062 16.558594 16.128906 16.085938 16.257812 15.703125 C 16.402344 15.28125 16.578125 15.019531 16.722656 15.019531 C 17.042969 15.019531 17.402344 16.21875 17.402344 16.859375 C 17.402344 17.402344 17.097656 17.847656 16.722656 17.847656 C 16.34375 17.847656 16.039062 17.402344 16.039062 16.859375 Z M 16.105469 15.65625 C 15.972656 16.050781 15.878906 16.542969 15.878906 16.859375 C 15.878906 17.488281 16.257812 18 16.722656 18 C 17.183594 18 17.5625 17.488281 17.5625 16.859375 C 17.5625 16.285156 17.226562 14.867188 16.722656 14.867188 C 16.4375 14.867188 16.230469 15.296875 16.105469 15.65625 "/>
<path style=" stroke:none;fill-rule:nonzero;fill:rgb(51.372549%,60.392157%,83.921569%);fill-opacity:1;" d="M 16.164062 16.964844 C 16.164062 16.398438 16.578125 15.382812 16.878906 15.382812 C 16.90625 15.382812 16.933594 15.398438 16.960938 15.417969 C 16.886719 15.238281 16.800781 15.121094 16.710938 15.121094 C 16.410156 15.121094 16.164062 16.398438 16.164062 16.964844 "/>
<path style=" stroke:none;fill-rule:nonzero;fill:rgb(45.490196%,51.372549%,79.215686%);fill-opacity:1;" d="M 17.84375 17.425781 C 17.84375 17.878906 17.570312 18.246094 17.238281 18.246094 C 16.902344 18.246094 16.628906 17.878906 16.628906 17.425781 C 16.628906 16.96875 16.902344 15.945312 17.238281 15.945312 C 17.570312 15.945312 17.84375 16.96875 17.84375 17.425781 "/>
<path style=" stroke:none;fill-rule:nonzero;fill:rgb(21.176471%,19.607843%,32.941176%);fill-opacity:1;" d="M 16.710938 17.425781 C 16.710938 16.949219 16.996094 16.023438 17.238281 16.023438 C 17.480469 16.023438 17.761719 16.949219 17.761719 17.425781 C 17.761719 17.835938 17.527344 18.167969 17.238281 18.167969 C 16.945312 18.167969 16.710938 17.835938 16.710938 17.425781 Z M 16.550781 17.425781 C 16.550781 17.917969 16.859375 18.320312 17.238281 18.320312 C 17.613281 18.320312 17.921875 17.917969 17.921875 17.425781 C 17.921875 17.035156 17.679688 15.867188 17.238281 15.867188 C 16.792969 15.867188 16.550781 17.035156 16.550781 17.425781 "/>
<path style=" stroke:none;fill-rule:nonzero;fill:rgb(51.372549%,60.392157%,83.921569%);fill-opacity:1;" d="M 16.886719 17.152344 C 16.855469 16.832031 17.140625 16.296875 17.359375 16.253906 C 17.382812 16.253906 17.402344 16.257812 17.421875 16.265625 C 17.359375 16.171875 17.285156 16.097656 17.222656 16.128906 C 17.003906 16.234375 16.855469 16.832031 16.886719 17.152344 "/>
<g clip-path="url(#clip9)" clip-rule="nonzero">
<g clip-path="url(#clip10)" clip-rule="nonzero">
<path style=" stroke:none;fill-rule:nonzero;fill:url(#linear4);" d="M 9.945312 2.878906 C 11.203125 4.914062 11.066406 6.632812 9.394531 7.535156 C 8.394531 8.074219 8.945312 8.785156 8.945312 8.785156 "/>
</g>
</g>
<path style=" stroke:none;fill-rule:nonzero;fill:rgb(3.137255%,2.352941%,1.568627%);fill-opacity:1;" d="M 9.824219 2.679688 C 9.710938 2.746094 9.675781 2.886719 9.742188 2.996094 C 10.441406 4.125 10.691406 5.152344 10.464844 5.960938 C 10.304688 6.535156 9.90625 6.996094 9.28125 7.332031 C 8.882812 7.546875 8.648438 7.816406 8.578125 8.132812 C 8.480469 8.5625 8.742188 8.90625 8.753906 8.921875 C 8.832031 9.023438 8.980469 9.042969 9.085938 8.96875 C 9.191406 8.894531 9.214844 8.753906 9.136719 8.648438 C 9.136719 8.648438 8.992188 8.449219 9.042969 8.222656 C 9.085938 8.042969 9.242188 7.878906 9.511719 7.734375 C 10.253906 7.332031 10.730469 6.777344 10.925781 6.078125 C 11.183594 5.148438 10.917969 4 10.152344 2.761719 C 10.085938 2.652344 9.9375 2.617188 9.824219 2.679688 "/>
<g clip-path="url(#clip11)" clip-rule="nonzero">
<g clip-path="url(#clip12)" clip-rule="nonzero">
<path style=" stroke:none;fill-rule:nonzero;fill:url(#linear5);" d="M 17.277344 1.433594 C 17.277344 1.433594 15.195312 1.410156 7.582031 1.660156 C -0.03125 1.914062 0.25 4.636719 0.238281 8.546875 L 0.238281 17.953125 C 0.238281 18.75 0.929688 19.070312 1.78125 19.070312 C 2.632812 19.070312 3.328125 18.75 3.328125 17.953125 C 3.328125 17.953125 3.523438 15.265625 3.691406 13.628906 C 4.074219 7.691406 11.261719 14.605469 16.484375 14.285156 C 21.234375 13.992188 24.972656 12.355469 24.972656 8.46875 C 24.972656 4.585938 22.519531 1.433594 17.277344 1.433594 "/>
</g>
</g>
<path style=" stroke:none;fill-rule:nonzero;fill:rgb(21.176471%,19.607843%,32.941176%);fill-opacity:1;" d="M 0.476562 17.953125 L 0.476562 8.546875 C 0.476562 8.546875 0.476562 8.132812 0.476562 8.132812 C 0.476562 4.515625 0.480469 2.125 7.589844 1.890625 C 15.101562 1.640625 17.253906 1.664062 17.273438 1.664062 L 17.277344 1.664062 C 19.671875 1.664062 21.621094 2.351562 22.917969 3.652344 C 24.105469 4.84375 24.734375 6.511719 24.734375 8.46875 C 24.734375 12.664062 20.238281 13.824219 16.46875 14.054688 C 14.484375 14.179688 12.144531 13.199219 10.082031 12.335938 C 7.765625 11.367188 5.765625 10.53125 4.535156 11.257812 C 3.886719 11.640625 3.53125 12.414062 3.457031 13.617188 C 3.289062 15.226562 3.089844 17.910156 3.089844 17.9375 C 3.089844 18.726562 2.269531 18.839844 1.78125 18.839844 C 1.292969 18.839844 0.476562 18.726562 0.476562 17.953125 Z M 7.574219 1.433594 C 0.00390625 1.683594 0 4.386719 0 8.132812 L 0 17.953125 C 0 18.796875 0.667969 19.300781 1.78125 19.300781 C 2.898438 19.300781 3.566406 18.796875 3.566406 17.953125 C 3.566406 17.941406 3.761719 15.265625 3.929688 13.652344 C 3.996094 12.601562 4.277344 11.949219 4.785156 11.648438 C 5.804688 11.046875 7.789062 11.878906 9.890625 12.753906 C 12.003906 13.640625 14.402344 14.640625 16.5 14.511719 C 22.117188 14.164062 25.210938 12.019531 25.210938 8.46875 C 25.210938 6.390625 24.535156 4.617188 23.261719 3.335938 C 21.875 1.941406 19.804688 1.207031 17.277344 1.207031 L 17.28125 1.207031 C 17.257812 1.203125 15.105469 1.183594 7.574219 1.433594 "/>
<g clip-path="url(#clip13)" clip-rule="nonzero">
<g clip-path="url(#clip14)" clip-rule="nonzero">
<path style=" stroke:none;fill-rule:nonzero;fill:url(#linear6);" d="M 0.445312 8.804688 C 0.453125 9.6875 0.328125 17.402344 0.816406 17.867188 C 0.664062 17.523438 1 10.050781 0.996094 9.582031 L 0.992188 9.304688 C 0.992188 9.175781 0.992188 9.046875 0.992188 8.917969 C 0.804688 8.847656 0.621094 8.761719 0.445312 8.664062 L 0.445312 8.804688 "/>
</g>
</g>
<g clip-path="url(#clip15)" clip-rule="nonzero">
<g clip-path="url(#clip16)" clip-rule="nonzero">
<path style=" stroke:none;fill-rule:nonzero;fill:url(#linear7);" d="M 17.273438 1.691406 C 17.273438 1.691406 15.238281 1.667969 7.789062 1.914062 C 0.339844 2.160156 0.453125 4.898438 0.453125 8.578125 L 0.457031 8.714844 C 0.628906 8.8125 0.808594 8.898438 0.988281 8.96875 C 0.992188 5.484375 1.140625 2.929688 8.324219 2.691406 C 15.773438 2.445312 17.8125 2.46875 17.8125 2.46875 C 20.660156 2.46875 22.621094 3.429688 23.839844 4.925781 C 22.71875 2.988281 20.589844 1.691406 17.273438 1.691406 "/>
</g>
</g>
<g clip-path="url(#clip17)" clip-rule="nonzero">
<g clip-path="url(#clip18)" clip-rule="nonzero">
<path style=" stroke:none;fill-rule:nonzero;fill:url(#linear8);" d="M 14.679688 13.609375 L 14.679688 17.800781 C 14.679688 19.25 13.238281 19.769531 11.457031 19.769531 C 9.679688 19.769531 8.234375 19.25 8.234375 17.800781 L 8.234375 11.421875 "/>
</g>
</g>
<path style=" stroke:none;fill-rule:nonzero;fill:rgb(21.176471%,19.607843%,32.941176%);fill-opacity:1;" d="M 7.996094 11.421875 L 7.996094 17.800781 C 7.996094 19.21875 9.226562 20 11.457031 20 C 13.691406 20 14.917969 19.21875 14.917969 17.800781 L 14.917969 13.609375 C 14.917969 13.484375 14.8125 13.382812 14.679688 13.382812 C 14.550781 13.382812 14.441406 13.484375 14.441406 13.609375 L 14.441406 17.800781 C 14.441406 19.238281 12.820312 19.542969 11.457031 19.542969 C 10.097656 19.542969 8.472656 19.238281 8.472656 17.800781 L 8.472656 11.421875 C 8.472656 11.296875 8.367188 11.195312 8.234375 11.195312 C 8.105469 11.195312 7.996094 11.296875 7.996094 11.421875 "/>
<path style=" stroke:none;fill-rule:nonzero;fill:rgb(54.509804%,61.568627%,84.313725%);fill-opacity:1;" d="M 10.261719 18.207031 C 10.261719 18.75 9.808594 19.195312 9.246094 19.195312 C 8.683594 19.195312 8.230469 18.75 8.230469 18.207031 C 8.230469 17.660156 8.683594 16.425781 9.246094 16.425781 C 9.808594 16.425781 10.261719 17.660156 10.261719 18.207031 "/>
<path style=" stroke:none;fill-rule:nonzero;fill:rgb(21.176471%,19.607843%,32.941176%);fill-opacity:1;" d="M 8.308594 18.207031 C 8.308594 17.675781 8.761719 16.503906 9.246094 16.503906 C 9.730469 16.503906 10.183594 17.675781 10.183594 18.207031 C 10.183594 18.710938 9.761719 19.117188 9.246094 19.117188 C 8.730469 19.117188 8.308594 18.710938 8.308594 18.207031 Z M 8.148438 18.207031 C 8.148438 18.792969 8.640625 19.269531 9.246094 19.269531 C 9.851562 19.269531 10.34375 18.792969 10.34375 18.207031 C 10.34375 17.652344 9.878906 16.351562 9.246094 16.351562 C 8.613281 16.351562 8.148438 17.652344 8.148438 18.207031 "/>
<path style=" stroke:none;fill-rule:nonzero;fill:rgb(65.098039%,74.117647%,90.196078%);fill-opacity:1;" d="M 8.402344 18.269531 C 8.402344 17.78125 8.972656 16.90625 9.390625 16.90625 C 9.429688 16.90625 9.46875 16.917969 9.503906 16.9375 C 9.402344 16.78125 9.28125 16.679688 9.15625 16.679688 C 8.738281 16.679688 8.402344 17.785156 8.402344 18.269531 "/>
<path style=" stroke:none;fill-rule:nonzero;fill:rgb(54.509804%,61.568627%,84.313725%);fill-opacity:1;" d="M 11.089844 18.285156 C 11.089844 19.003906 10.621094 19.589844 10.039062 19.589844 C 9.457031 19.589844 8.984375 19.003906 8.984375 18.285156 C 8.984375 17.5625 9.457031 15.933594 10.039062 15.933594 C 10.621094 15.933594 11.089844 17.5625 11.089844 18.285156 "/>
<path style=" stroke:none;fill-rule:nonzero;fill:rgb(21.176471%,19.607843%,32.941176%);fill-opacity:1;" d="M 9.0625 18.285156 C 9.0625 17.574219 9.535156 16.011719 10.039062 16.011719 C 10.542969 16.011719 11.011719 17.574219 11.011719 18.285156 C 11.011719 18.960938 10.574219 19.511719 10.039062 19.511719 C 9.5 19.511719 9.0625 18.960938 9.0625 18.285156 Z M 8.90625 18.285156 C 8.90625 19.046875 9.414062 19.664062 10.039062 19.664062 C 10.664062 19.664062 11.171875 19.046875 11.171875 18.285156 C 11.171875 17.558594 10.691406 15.859375 10.039062 15.859375 C 9.382812 15.859375 8.90625 17.558594 8.90625 18.285156 "/>
<path style=" stroke:none;fill-rule:nonzero;fill:rgb(65.098039%,74.117647%,90.196078%);fill-opacity:1;" d="M 9.269531 18.414062 C 9.269531 17.71875 9.839844 16.472656 10.253906 16.472656 C 10.292969 16.472656 10.332031 16.492188 10.371094 16.515625 C 10.265625 16.296875 10.148438 16.152344 10.023438 16.152344 C 9.605469 16.152344 9.269531 17.722656 9.269531 18.414062 "/>
<path style=" stroke:none;fill-rule:nonzero;fill:rgb(54.509804%,61.568627%,84.313725%);fill-opacity:1;" d="M 11.644531 18.671875 C 11.644531 19.179688 11.304688 19.59375 10.886719 19.59375 C 10.46875 19.59375 10.128906 19.179688 10.128906 18.671875 C 10.128906 18.160156 10.46875 17.007812 10.886719 17.007812 C 11.304688 17.007812 11.644531 18.160156 11.644531 18.671875 "/>
<path style=" stroke:none;fill-rule:nonzero;fill:rgb(21.176471%,19.607843%,32.941176%);fill-opacity:1;" d="M 10.207031 18.671875 C 10.207031 18.117188 10.566406 17.082031 10.886719 17.082031 C 11.207031 17.082031 11.566406 18.117188 11.566406 18.671875 C 11.566406 19.136719 11.261719 19.515625 10.886719 19.515625 C 10.511719 19.515625 10.207031 19.136719 10.207031 18.671875 Z M 10.050781 18.671875 C 10.050781 19.222656 10.425781 19.667969 10.886719 19.667969 C 11.347656 19.667969 11.722656 19.222656 11.722656 18.671875 C 11.722656 18.167969 11.390625 16.929688 10.886719 16.929688 C 10.382812 16.929688 10.050781 18.167969 10.050781 18.671875 "/>
<path style=" stroke:none;fill-rule:nonzero;fill:rgb(65.098039%,74.117647%,90.196078%);fill-opacity:1;" d="M 10.445312 18.367188 C 10.410156 18.003906 10.765625 17.398438 11.039062 17.355469 C 11.066406 17.351562 11.09375 17.359375 11.121094 17.367188 C 11.039062 17.261719 10.945312 17.179688 10.867188 17.214844 C 10.59375 17.332031 10.410156 18.003906 10.445312 18.367188 "/>
<g clip-path="url(#clip19)" clip-rule="nonzero">
<g clip-path="url(#clip20)" clip-rule="nonzero">
<path style=" stroke:none;fill-rule:nonzero;fill:url(#linear9);" d="M 24.542969 10.730469 L 24.542969 17.636719 C 24.542969 19.085938 23.097656 19.605469 21.320312 19.605469 C 19.539062 19.605469 18.097656 19.085938 18.097656 17.636719 L 18.097656 13.667969 "/>
</g>
</g>
<path style=" stroke:none;fill-rule:nonzero;fill:rgb(21.176471%,19.607843%,32.941176%);fill-opacity:1;" d="M 24.304688 10.730469 L 24.304688 17.636719 C 24.304688 19.074219 22.679688 19.378906 21.320312 19.378906 C 19.957031 19.378906 18.335938 19.074219 18.335938 17.636719 L 18.335938 13.667969 C 18.335938 13.542969 18.226562 13.441406 18.097656 13.441406 C 17.964844 13.441406 17.859375 13.542969 17.859375 13.667969 L 17.859375 17.636719 C 17.859375 19.054688 19.085938 19.835938 21.320312 19.835938 C 23.550781 19.835938 24.777344 19.054688 24.777344 17.636719 L 24.777344 10.730469 C 24.777344 10.605469 24.671875 10.503906 24.542969 10.503906 C 24.410156 10.503906 24.304688 10.605469 24.304688 10.730469 "/>
<path style=" stroke:none;fill-rule:nonzero;fill:rgb(54.509804%,61.568627%,84.313725%);fill-opacity:1;" d="M 20.125 18.042969 C 20.125 18.585938 19.667969 19.03125 19.105469 19.03125 C 18.546875 19.03125 18.089844 18.585938 18.089844 18.042969 C 18.089844 17.496094 18.546875 16.261719 19.105469 16.261719 C 19.667969 16.261719 20.125 17.496094 20.125 18.042969 "/>
<path style=" stroke:none;fill-rule:nonzero;fill:rgb(21.176471%,19.607843%,32.941176%);fill-opacity:1;" d="M 18.167969 18.042969 C 18.167969 17.511719 18.621094 16.339844 19.105469 16.339844 C 19.589844 16.339844 20.042969 17.511719 20.042969 18.042969 C 20.042969 18.542969 19.625 18.953125 19.105469 18.953125 C 18.589844 18.953125 18.167969 18.542969 18.167969 18.042969 Z M 18.011719 18.042969 C 18.011719 18.628906 18.503906 19.105469 19.105469 19.105469 C 19.710938 19.105469 20.203125 18.628906 20.203125 18.042969 C 20.203125 17.488281 19.742188 16.1875 19.105469 16.1875 C 18.472656 16.1875 18.011719 17.488281 18.011719 18.042969 "/>
<path style=" stroke:none;fill-rule:nonzero;fill:rgb(65.098039%,74.117647%,90.196078%);fill-opacity:1;" d="M 18.265625 18.105469 C 18.265625 17.617188 18.832031 16.742188 19.25 16.742188 C 19.289062 16.742188 19.328125 16.753906 19.367188 16.773438 C 19.261719 16.617188 19.144531 16.515625 19.015625 16.515625 C 18.601562 16.515625 18.265625 17.621094 18.265625 18.105469 "/>
<path style=" stroke:none;fill-rule:nonzero;fill:rgb(54.509804%,61.568627%,84.313725%);fill-opacity:1;" d="M 20.953125 18.117188 C 20.953125 18.839844 20.480469 19.425781 19.898438 19.425781 C 19.316406 19.425781 18.847656 18.839844 18.847656 18.117188 C 18.847656 17.398438 19.316406 15.769531 19.898438 15.769531 C 20.480469 15.769531 20.953125 17.398438 20.953125 18.117188 "/>
<path style=" stroke:none;fill-rule:nonzero;fill:rgb(21.176471%,19.607843%,32.941176%);fill-opacity:1;" d="M 18.925781 18.117188 C 18.925781 17.410156 19.394531 15.847656 19.898438 15.847656 C 20.402344 15.847656 20.871094 17.410156 20.871094 18.117188 C 20.871094 18.796875 20.4375 19.347656 19.898438 19.347656 C 19.363281 19.347656 18.925781 18.796875 18.925781 18.117188 Z M 18.765625 18.117188 C 18.765625 18.882812 19.273438 19.5 19.898438 19.5 C 20.523438 19.5 21.03125 18.882812 21.03125 18.117188 C 21.03125 17.394531 20.554688 15.695312 19.898438 15.695312 C 19.246094 15.695312 18.765625 17.394531 18.765625 18.117188 "/>
<path style=" stroke:none;fill-rule:nonzero;fill:rgb(65.098039%,74.117647%,90.196078%);fill-opacity:1;" d="M 19.128906 18.25 C 19.128906 17.554688 19.699219 16.308594 20.117188 16.308594 C 20.15625 16.308594 20.195312 16.328125 20.234375 16.351562 C 20.128906 16.132812 20.007812 15.988281 19.882812 15.988281 C 19.464844 15.988281 19.128906 17.554688 19.128906 18.25 "/>
<path style=" stroke:none;fill-rule:nonzero;fill:rgb(54.509804%,61.568627%,84.313725%);fill-opacity:1;" d="M 21.503906 18.507812 C 21.503906 19.015625 21.164062 19.429688 20.746094 19.429688 C 20.328125 19.429688 19.988281 19.015625 19.988281 18.507812 C 19.988281 17.996094 20.328125 16.84375 20.746094 16.84375 C 21.164062 16.84375 21.503906 17.996094 21.503906 18.507812 "/>
<path style=" stroke:none;fill-rule:nonzero;fill:rgb(21.176471%,19.607843%,32.941176%);fill-opacity:1;" d="M 20.070312 18.507812 C 20.070312 17.953125 20.429688 16.921875 20.746094 16.921875 C 21.066406 16.921875 21.425781 17.953125 21.425781 18.507812 C 21.425781 18.972656 21.121094 19.351562 20.746094 19.351562 C 20.375 19.351562 20.070312 18.972656 20.070312 18.507812 Z M 19.910156 18.507812 C 19.910156 19.058594 20.285156 19.503906 20.746094 19.503906 C 21.207031 19.503906 21.585938 19.058594 21.585938 18.507812 C 21.585938 18.003906 21.25 16.765625 20.746094 16.765625 C 20.242188 16.765625 19.910156 18.003906 19.910156 18.507812 "/>
<path style=" stroke:none;fill-rule:nonzero;fill:rgb(65.098039%,74.117647%,90.196078%);fill-opacity:1;" d="M 20.308594 18.203125 C 20.269531 17.839844 20.625 17.234375 20.902344 17.191406 C 20.925781 17.1875 20.953125 17.195312 20.980469 17.203125 C 20.898438 17.097656 20.808594 17.015625 20.730469 17.050781 C 20.453125 17.167969 20.269531 17.839844 20.308594 18.203125 "/>
<path style=" stroke:none;fill-rule:nonzero;fill:rgb(21.176471%,19.607843%,32.941176%);fill-opacity:1;" d="M 2.257812 4.710938 C 2.171875 4.824219 2.203125 4.980469 2.324219 5.0625 C 2.445312 5.140625 2.609375 5.113281 2.695312 5 C 3.171875 4.351562 4.25 4.171875 4.761719 4.355469 C 4.863281 4.390625 4.992188 4.375 5.050781 4.320312 C 5.105469 4.261719 5.070312 4.1875 4.96875 4.148438 C 4.265625 3.894531 2.890625 3.851562 2.257812 4.710938 "/>
<path style=" stroke:none;fill-rule:nonzero;fill:rgb(21.176471%,19.607843%,32.941176%);fill-opacity:1;" d="M 4.332031 7.5625 C 3.890625 7.65625 3.5 7.410156 3.460938 7.011719 C 3.421875 6.613281 3.75 6.21875 4.195312 6.125 C 4.636719 6.03125 5.027344 6.277344 5.0625 6.675781 C 5.101562 7.070312 4.773438 7.46875 4.332031 7.5625 Z M 5.246094 6.621094 C 5.203125 6.15625 4.742188 5.871094 4.21875 5.980469 C 3.691406 6.09375 3.304688 6.558594 3.347656 7.019531 C 3.390625 7.484375 3.851562 7.769531 4.375 7.660156 C 4.902344 7.546875 5.289062 7.082031 5.246094 6.621094 "/>
<path style=" stroke:none;fill-rule:nonzero;fill:rgb(98.823529%,98.823529%,98.823529%);fill-opacity:1;" d="M 5.035156 6.707031 C 5.070312 7.054688 4.785156 7.40625 4.394531 7.488281 C 4.007812 7.570312 3.667969 7.351562 3.632812 7.003906 C 3.597656 6.652344 3.886719 6.304688 4.273438 6.222656 C 4.660156 6.140625 5.003906 6.355469 5.035156 6.707031 "/>
<path style=" stroke:none;fill-rule:nonzero;fill:rgb(21.176471%,19.607843%,32.941176%);fill-opacity:1;" d="M 4.980469 6.710938 C 4.875 6.441406 4.597656 6.289062 4.359375 6.363281 C 4.234375 6.402344 4.148438 6.5 4.105469 6.621094 L 4.4375 6.785156 L 4.132812 7.003906 C 4.246094 7.253906 4.511719 7.398438 4.742188 7.328125 C 4.976562 7.25 5.085938 6.976562 4.980469 6.710938 "/>
<path style=" stroke:none;fill-rule:nonzero;fill:rgb(100%,100%,100%);fill-opacity:1;" d="M 4.738281 6.59375 C 4.796875 6.585938 4.863281 6.65625 4.890625 6.757812 C 4.914062 6.855469 4.886719 6.941406 4.828125 6.949219 C 4.769531 6.957031 4.699219 6.886719 4.675781 6.789062 C 4.648438 6.691406 4.675781 6.605469 4.738281 6.59375 "/>
<path style=" stroke:none;fill-rule:nonzero;fill:rgb(21.176471%,19.607843%,32.941176%);fill-opacity:1;" d="M 3.777344 6.195312 C 3.363281 6.511719 3.230469 6.976562 3.511719 7.238281 C 3.488281 7.226562 3.539062 7.292969 3.515625 7.28125 C 3.078125 7.039062 3.003906 6.316406 3.410156 5.890625 C 3.757812 5.523438 4.800781 5.253906 4.792969 5.394531 C 4.75 5.554688 4.445312 5.761719 4.066406 5.984375 C 3.941406 6.054688 3.855469 6.132812 3.777344 6.195312 "/>
<path style=" stroke:none;fill-rule:nonzero;fill:rgb(21.176471%,19.607843%,32.941176%);fill-opacity:1;" d="M 10.578125 10.683594 C 10.554688 10.792969 10.628906 10.882812 10.738281 10.882812 L 11.378906 10.882812 C 11.488281 10.882812 11.597656 10.792969 11.617188 10.683594 L 11.789062 9.8125 C 11.808594 9.703125 11.917969 9.613281 12.027344 9.613281 L 12.71875 9.613281 C 13.113281 9.613281 13.4375 9.574219 13.691406 9.488281 C 13.945312 9.40625 14.175781 9.269531 14.382812 9.074219 C 14.558594 8.914062 14.699219 8.738281 14.804688 8.546875 C 14.914062 8.351562 14.992188 8.140625 15.035156 7.90625 C 15.148438 7.339844 15.039062 6.921875 14.789062 6.585938 C 14.472656 6.164062 13.667969 6.140625 13.667969 6.140625 C 13.558594 6.125 13.378906 6.113281 13.269531 6.113281 L 11.667969 6.113281 C 11.558594 6.113281 11.449219 6.199219 11.429688 6.308594 Z M 13.074219 6.863281 C 13.472656 6.863281 13.734375 6.9375 13.867188 7.082031 C 13.996094 7.230469 14.03125 7.480469 13.960938 7.832031 C 13.886719 8.203125 13.75 8.46875 13.542969 8.625 C 13.339844 8.78125 12.808594 8.839844 12.808594 8.839844 C 12.695312 8.851562 12.515625 8.859375 12.40625 8.859375 L 12.175781 8.859375 C 12.0625 8.859375 11.988281 8.773438 12.011719 8.664062 L 12.324219 7.0625 C 12.34375 6.953125 12.453125 6.863281 12.5625 6.863281 L 13.074219 6.863281 "/>
<path style="fill:none;stroke-width:5.333333;stroke-linecap:butt;stroke-linejoin:miter;stroke:rgb(100%,100%,100%);stroke-opacity:1;stroke-miterlimit:4;" d="M 128.155931 232.832935 C 127.871981 234.161268 128.771155 235.252398 130.096253 235.252398 L 137.857543 235.252398 C 139.182641 235.252398 140.50774 234.161268 140.744364 232.832935 L 142.826662 222.253714 C 143.063286 220.925382 144.388385 219.834251 145.713483 219.834251 L 154.089997 219.834251 C 158.869816 219.834251 162.797785 219.359847 165.873906 218.316157 C 168.950027 217.319907 171.742199 215.659491 174.25042 213.287469 C 176.380043 211.34241 178.08374 209.20759 179.361514 206.883008 C 180.686612 204.510985 181.633111 201.949201 182.153685 199.102774 C 183.526108 192.223908 182.20101 187.14778 179.172214 183.067901 C 175.338894 177.944332 165.589957 177.65969 165.589957 177.65969 C 164.264859 177.469928 162.087911 177.327606 160.762813 177.327606 L 141.359589 177.327606 C 140.03449 177.327606 138.709392 178.371296 138.472767 179.699629 Z M 158.396566 186.436173 C 163.22371 186.436173 166.394481 187.337542 168.003529 189.092838 C 169.565252 190.895576 169.991176 193.931765 169.139327 198.201405 C 168.240153 202.708248 166.583781 205.934199 164.075559 207.831817 C 161.614662 209.729435 155.17847 210.441042 155.17847 210.441042 C 153.806047 210.583363 151.6291 210.678244 150.304002 210.678244 L 147.511831 210.678244 C 146.139407 210.678244 145.240234 209.634554 145.524183 208.306221 L 149.310178 188.855636 C 149.546803 187.527304 150.871901 186.436173 152.196999 186.436173 Z M 158.396566 186.436173 " transform="matrix(0.082541,0,0,0.0823401,0.0000000673939,-8.487886)"/>
<path style=" stroke:none;fill-rule:nonzero;fill:rgb(21.176471%,19.607843%,32.941176%);fill-opacity:1;" d="M 16.039062 5.042969 C 16.0625 4.933594 16.171875 4.84375 16.28125 4.84375 L 16.910156 4.84375 C 17.023438 4.84375 17.09375 4.933594 17.074219 5.042969 L 16.902344 5.914062 C 16.882812 6.023438 16.957031 6.113281 17.066406 6.113281 L 17.582031 6.113281 C 17.695312 6.113281 17.875 6.121094 17.984375 6.132812 C 17.984375 6.132812 18.738281 6.140625 18.984375 6.414062 C 19.183594 6.636719 19.269531 6.941406 19.179688 7.394531 L 18.789062 9.417969 C 18.765625 9.523438 18.660156 9.613281 18.546875 9.613281 L 17.902344 9.613281 C 17.789062 9.613281 17.71875 9.523438 17.738281 9.417969 L 18.074219 7.699219 C 18.09375 7.59375 18.117188 7.414062 18.125 7.300781 C 18.125 7.300781 18.140625 7.097656 18.058594 7.011719 C 17.976562 6.925781 17.804688 6.882812 17.539062 6.882812 L 16.917969 6.882812 C 16.804688 6.882812 16.699219 6.96875 16.675781 7.078125 L 16.222656 9.417969 C 16.199219 9.523438 16.09375 9.613281 15.980469 9.613281 L 15.351562 9.613281 C 15.242188 9.613281 15.167969 9.523438 15.1875 9.417969 L 16.039062 5.042969 "/>
<path style="fill:none;stroke-width:5.333333;stroke-linecap:butt;stroke-linejoin:miter;stroke:rgb(100%,100%,100%);stroke-opacity:1;stroke-miterlimit:4;" d="M 194.316194 164.328923 C 194.600144 163.00059 195.925242 161.90946 197.25034 161.90946 L 204.869655 161.90946 C 206.242078 161.90946 207.093927 163.00059 206.857303 164.328923 L 204.775005 174.908143 C 204.538381 176.236476 205.437555 177.327606 206.762653 177.327606 L 213.009545 177.327606 C 214.381968 177.327606 216.558915 177.422487 217.884013 177.564809 C 217.884013 177.564809 227.017726 177.65969 229.999197 180.980521 C 232.412769 183.684627 233.453918 187.384982 232.365444 192.888075 L 227.63295 217.462229 C 227.349001 218.743121 226.071227 219.834251 224.698804 219.834251 L 216.890189 219.834251 C 215.517766 219.834251 214.665917 218.743121 214.902542 217.462229 L 218.972487 196.58843 C 219.209111 195.307538 219.493061 193.125277 219.587711 191.749504 C 219.587711 191.749504 219.777011 189.2826 218.783187 188.23891 C 217.789363 187.19522 215.707066 186.673375 212.48897 186.673375 L 204.964305 186.673375 C 203.591882 186.673375 202.314109 187.717065 202.030159 189.045398 L 196.540466 217.462229 C 196.256517 218.743121 194.978743 219.834251 193.60632 219.834251 L 185.987005 219.834251 C 184.661907 219.834251 183.762733 218.743121 183.999358 217.462229 Z M 194.316194 164.328923 " transform="matrix(0.082541,0,0,0.0823401,0.0000000673939,-8.487886)"/>
<path style=" stroke:none;fill-rule:nonzero;fill:rgb(21.176471%,19.607843%,32.941176%);fill-opacity:1;" d="M 19.234375 10.683594 C 19.214844 10.792969 19.285156 10.882812 19.398438 10.882812 L 20.035156 10.882812 C 20.144531 10.882812 20.253906 10.792969 20.277344 10.683594 L 20.445312 9.8125 C 20.46875 9.703125 20.574219 9.613281 20.6875 9.613281 L 21.375 9.613281 C 21.769531 9.613281 22.09375 9.574219 22.347656 9.488281 C 22.601562 9.40625 22.832031 9.269531 23.039062 9.074219 C 23.214844 8.914062 23.355469 8.738281 23.464844 8.546875 C 23.574219 8.351562 23.648438 8.140625 23.695312 7.90625 C 23.804688 7.339844 23.703125 6.914062 23.445312 6.585938 C 23.125 6.175781 22.328125 6.140625 22.328125 6.140625 C 22.21875 6.125 22.035156 6.113281 21.925781 6.113281 L 20.328125 6.113281 C 20.214844 6.113281 20.109375 6.199219 20.085938 6.308594 Z M 21.734375 6.863281 C 22.128906 6.863281 22.390625 6.9375 22.523438 7.082031 C 22.65625 7.230469 22.6875 7.480469 22.617188 7.832031 C 22.546875 8.203125 22.40625 8.46875 22.203125 8.625 C 21.996094 8.78125 21.464844 8.839844 21.464844 8.839844 C 21.355469 8.851562 21.171875 8.859375 21.0625 8.859375 L 20.832031 8.859375 C 20.722656 8.859375 20.648438 8.773438 20.667969 8.664062 L 20.980469 7.0625 C 21.003906 6.953125 21.109375 6.863281 21.222656 6.863281 L 21.734375 6.863281 "/>
<path style="fill:none;stroke-width:5.333333;stroke-linecap:butt;stroke-linejoin:miter;stroke:rgb(100%,100%,100%);stroke-opacity:1;stroke-miterlimit:4;" d="M 233.027993 232.832935 C 232.791369 234.161268 233.643217 235.252398 235.015641 235.252398 L 242.729606 235.252398 C 244.054704 235.252398 245.379802 234.161268 245.663752 232.832935 L 247.698724 222.253714 C 247.982674 220.925382 249.260447 219.834251 250.63287 219.834251 L 258.962059 219.834251 C 263.741878 219.834251 267.669848 219.359847 270.745969 218.316157 C 273.82209 217.319907 276.614261 215.659491 279.122483 213.287469 C 281.252105 211.34241 282.955803 209.20759 284.280901 206.883008 C 285.605999 204.510985 286.505173 201.949201 287.073072 199.102774 C 288.398171 192.223908 287.167722 187.052899 284.044276 183.067901 C 280.163631 178.086654 270.509344 177.65969 270.509344 177.65969 C 269.184246 177.469928 266.959974 177.327606 265.634875 177.327606 L 246.278976 177.327606 C 244.906553 177.327606 243.628779 178.371296 243.34483 179.699629 Z M 263.315954 186.436173 C 268.095772 186.436173 271.266543 187.337542 272.875591 189.092838 C 274.484639 190.895576 274.863238 193.931765 274.011389 198.201405 C 273.159541 202.708248 271.455843 205.934199 268.994946 207.831817 C 266.486724 209.729435 260.050533 210.441042 260.050533 210.441042 C 258.725435 210.583363 256.501162 210.678244 255.176064 210.678244 L 252.383893 210.678244 C 251.058795 210.678244 250.159621 209.634554 250.396245 208.306221 L 254.182241 188.855636 C 254.46619 187.527304 255.743963 186.436173 257.116387 186.436173 Z M 263.315954 186.436173 " transform="matrix(0.082541,0,0,0.0823401,0.0000000673939,-8.487886)"/>
<path style=" stroke:none;fill-rule:nonzero;fill:rgb(21.176471%,19.607843%,32.941176%);fill-opacity:1;" d="M 10.578125 10.683594 C 10.554688 10.792969 10.628906 10.882812 10.738281 10.882812 L 11.378906 10.882812 C 11.488281 10.882812 11.597656 10.792969 11.617188 10.683594 L 11.789062 9.8125 C 11.808594 9.703125 11.917969 9.613281 12.027344 9.613281 L 12.71875 9.613281 C 13.113281 9.613281 13.4375 9.574219 13.691406 9.488281 C 13.945312 9.40625 14.175781 9.269531 14.382812 9.074219 C 14.558594 8.914062 14.699219 8.738281 14.804688 8.546875 C 14.914062 8.351562 14.992188 8.140625 15.035156 7.90625 C 15.148438 7.339844 15.039062 6.921875 14.789062 6.585938 C 14.472656 6.164062 13.667969 6.140625 13.667969 6.140625 C 13.558594 6.125 13.378906 6.113281 13.269531 6.113281 L 11.667969 6.113281 C 11.558594 6.113281 11.449219 6.199219 11.429688 6.308594 Z M 13.074219 6.863281 C 13.472656 6.863281 13.734375 6.9375 13.867188 7.082031 C 13.996094 7.230469 14.03125 7.480469 13.960938 7.832031 C 13.886719 8.203125 13.75 8.46875 13.542969 8.625 C 13.339844 8.78125 12.808594 8.839844 12.808594 8.839844 C 12.695312 8.851562 12.515625 8.859375 12.40625 8.859375 L 12.175781 8.859375 C 12.0625 8.859375 11.988281 8.773438 12.011719 8.664062 L 12.324219 7.0625 C 12.34375 6.953125 12.453125 6.863281 12.5625 6.863281 L 13.074219 6.863281 "/>
<path style=" stroke:none;fill-rule:nonzero;fill:rgb(21.176471%,19.607843%,32.941176%);fill-opacity:1;" d="M 16.039062 5.042969 C 16.0625 4.933594 16.171875 4.84375 16.28125 4.84375 L 16.910156 4.84375 C 17.023438 4.84375 17.09375 4.933594 17.074219 5.042969 L 16.902344 5.914062 C 16.882812 6.023438 16.957031 6.113281 17.066406 6.113281 L 17.582031 6.113281 C 17.695312 6.113281 17.875 6.121094 17.984375 6.132812 C 17.984375 6.132812 18.738281 6.140625 18.984375 6.414062 C 19.183594 6.636719 19.269531 6.941406 19.179688 7.394531 L 18.789062 9.417969 C 18.765625 9.523438 18.660156 9.613281 18.546875 9.613281 L 17.902344 9.613281 C 17.789062 9.613281 17.71875 9.523438 17.738281 9.417969 L 18.074219 7.699219 C 18.09375 7.59375 18.117188 7.414062 18.125 7.300781 C 18.125 7.300781 18.140625 7.097656 18.058594 7.011719 C 17.976562 6.925781 17.804688 6.882812 17.539062 6.882812 L 16.917969 6.882812 C 16.804688 6.882812 16.699219 6.96875 16.675781 7.078125 L 16.222656 9.417969 C 16.199219 9.523438 16.09375 9.613281 15.980469 9.613281 L 15.351562 9.613281 C 15.242188 9.613281 15.167969 9.523438 15.1875 9.417969 L 16.039062 5.042969 "/>
<path style=" stroke:none;fill-rule:nonzero;fill:rgb(21.176471%,19.607843%,32.941176%);fill-opacity:1;" d="M 19.234375 10.683594 C 19.214844 10.792969 19.285156 10.882812 19.398438 10.882812 L 20.035156 10.882812 C 20.144531 10.882812 20.253906 10.792969 20.277344 10.683594 L 20.445312 9.8125 C 20.46875 9.703125 20.574219 9.613281 20.6875 9.613281 L 21.375 9.613281 C 21.769531 9.613281 22.09375 9.574219 22.347656 9.488281 C 22.601562 9.40625 22.832031 9.269531 23.039062 9.074219 C 23.214844 8.914062 23.355469 8.738281 23.464844 8.546875 C 23.574219 8.351562 23.648438 8.140625 23.695312 7.90625 C 23.804688 7.339844 23.703125 6.914062 23.445312 6.585938 C 23.125 6.175781 22.328125 6.140625 22.328125 6.140625 C 22.21875 6.125 22.035156 6.113281 21.925781 6.113281 L 20.328125 6.113281 C 20.214844 6.113281 20.109375 6.199219 20.085938 6.308594 Z M 21.734375 6.863281 C 22.128906 6.863281 22.390625 6.9375 22.523438 7.082031 C 22.65625 7.230469 22.6875 7.480469 22.617188 7.832031 C 22.546875 8.203125 22.40625 8.46875 22.203125 8.625 C 21.996094 8.78125 21.464844 8.839844 21.464844 8.839844 C 21.355469 8.851562 21.171875 8.859375 21.0625 8.859375 L 20.832031 8.859375 C 20.722656 8.859375 20.648438 8.773438 20.667969 8.664062 L 20.980469 7.0625 C 21.003906 6.953125 21.109375 6.863281 21.222656 6.863281 L 21.734375 6.863281 "/>
<g clip-path="url(#clip21)" clip-rule="nonzero">
<g clip-path="url(#clip22)" clip-rule="nonzero">
<path style=" stroke:none;fill-rule:nonzero;fill:url(#linear10);" d="M 6.292969 2.144531 C 6.292969 2.144531 8.179688 0.851562 9.375 0.40625 C 9.753906 0.265625 12.496094 -0.457031 12.941406 4.265625 C 13.183594 6.851562 12.746094 8.636719 10.621094 8.960938 C 9.347656 9.15625 9.546875 10.101562 9.546875 10.101562 "/>
</g>
</g>
<path style=" stroke:none;fill-rule:nonzero;fill:rgb(21.176471%,19.607843%,32.941176%);fill-opacity:1;" d="M 9.289062 0.195312 C 8.082031 0.640625 6.234375 1.90625 6.15625 1.957031 C 6.046875 2.03125 6.023438 2.175781 6.101562 2.277344 C 6.175781 2.382812 6.324219 2.40625 6.433594 2.332031 C 6.449219 2.320312 8.308594 1.050781 9.460938 0.621094 C 9.496094 0.605469 10.339844 0.300781 11.152344 0.789062 C 12 1.292969 12.535156 2.503906 12.703125 4.285156 C 12.972656 7.136719 12.335938 8.46875 10.582031 8.734375 C 10.085938 8.8125 9.722656 9 9.507812 9.300781 C 9.222656 9.695312 9.308594 10.128906 9.3125 10.148438 C 9.335938 10.269531 9.460938 10.347656 9.589844 10.324219 C 9.71875 10.300781 9.800781 10.183594 9.777344 10.058594 C 9.777344 10.054688 9.730469 9.789062 9.902344 9.558594 C 10.042969 9.367188 10.296875 9.242188 10.65625 9.1875 C 13.265625 8.789062 13.375 6.335938 13.179688 4.246094 C 12.992188 2.285156 12.394531 0.988281 11.40625 0.398438 C 10.410156 -0.195312 9.398438 0.152344 9.289062 0.195312 "/>
<g clip-path="url(#clip23)" clip-rule="nonzero">
<g clip-path="url(#clip24)" clip-rule="nonzero">
<path style=" stroke:none;fill-rule:nonzero;fill:url(#linear11);" d="M 8.226562 1.804688 C 10.363281 0.46875 11.546875 1.152344 11.546875 1.152344 C 10.621094 0.304688 9.574219 0.585938 9.34375 0.671875 C 8.15625 1.113281 5.859375 2.753906 5.859375 2.753906 C 5.859375 2.753906 5.550781 3.304688 6.167969 3.183594 C 6.167969 3.183594 7.511719 2.246094 8.226562 1.804688 "/>
</g>
</g>
<path style=" stroke:none;fill-rule:nonzero;fill:rgb(21.176471%,19.607843%,32.941176%);fill-opacity:1;" d="M 7.453125 8.09375 C 7.433594 9.175781 7.074219 10.164062 6.515625 10.667969 C 6.261719 10.894531 5.976562 11.007812 5.695312 10.992188 C 5.605469 10.988281 5.53125 11.054688 5.527344 11.136719 C 5.523438 11.222656 5.589844 11.292969 5.679688 11.296875 C 6.050781 11.316406 6.414062 11.175781 6.730469 10.890625 C 7.351562 10.332031 7.75 9.261719 7.769531 8.097656 C 7.773438 8.015625 7.703125 7.945312 7.613281 7.945312 C 7.527344 7.941406 7.457031 8.011719 7.453125 8.09375 "/>
<path style=" stroke:none;fill-rule:nonzero;fill:rgb(21.176471%,19.607843%,32.941176%);fill-opacity:1;" d="M 8.140625 7.320312 C 8.023438 7.59375 7.8125 7.769531 7.566406 7.796875 C 7.328125 7.828125 7.085938 7.714844 6.917969 7.5 C 6.863281 7.433594 6.765625 7.417969 6.695312 7.46875 C 6.625 7.519531 6.609375 7.617188 6.664062 7.683594 C 6.902344 7.988281 7.253906 8.144531 7.605469 8.101562 C 7.96875 8.058594 8.269531 7.816406 8.433594 7.441406 C 8.46875 7.363281 8.429688 7.273438 8.347656 7.242188 C 8.269531 7.207031 8.175781 7.246094 8.140625 7.320312 "/>
</g>
</svg>
