<?xml version="1.0" encoding="UTF-8"?>
<svg xmlns="http://www.w3.org/2000/svg" xmlns:xlink="http://www.w3.org/1999/xlink" width="82px" height="56px" viewBox="0 0 81 56" version="1.1">
<defs>
<clipPath id="clip1">
  <path d="M 11 0 L 31 0 L 31 26 L 11 26 Z M 11 0 "/>
</clipPath>
<clipPath id="clip2">
  <path d="M 11.269531 7.6875 C 11.269531 7.6875 15.199219 3.339844 17.917969 1.539062 C 18.78125 0.964844 25.226562 -2.425781 29.363281 9.246094 C 31.628906 15.632812 31.664062 20.394531 26.519531 22.421875 C 23.4375 23.640625 24.539062 25.914062 24.539062 25.914062 "/>
</clipPath>
<linearGradient id="linear0" gradientUnits="userSpaceOnUse" x1="0" y1="0" x2="1" y2="0" gradientTransform="matrix(26.768782,19.949896,-19.949333,26.769537,32.654798,19.893744)">
<stop offset="0" style="stop-color:rgb(54.901961%,60.784314%,83.921569%);stop-opacity:1;"/>
<stop offset="1" style="stop-color:rgb(31.372549%,36.862745%,60.784314%);stop-opacity:1;"/>
</linearGradient>
<clipPath id="clip3">
  <path d="M 64 10 L 74 10 L 74 13 L 64 13 Z M 64 10 "/>
</clipPath>
<clipPath id="clip4">
  <path d="M 64.066406 10.203125 L 72.3125 10.203125 C 73.003906 10.203125 73.5625 10.660156 73.5625 11.226562 C 73.5625 11.789062 73.003906 12.25 72.3125 12.25 L 65.839844 12.25 Z M 64.066406 10.203125 "/>
</clipPath>
<linearGradient id="linear1" gradientUnits="userSpaceOnUse" x1="0" y1="0" x2="1" y2="0" gradientTransform="matrix(26.991336,20.11577,-20.115203,26.992097,50.16213,-3.051424)">
<stop offset="0" style="stop-color:rgb(50.196078%,56.078431%,81.568627%);stop-opacity:1;"/>
<stop offset="1" style="stop-color:rgb(31.372549%,36.862745%,60.784314%);stop-opacity:1;"/>
</linearGradient>
<clipPath id="clip5">
  <path d="M 17 30 L 36 30 L 36 53 L 17 53 Z M 17 30 "/>
</clipPath>
<clipPath id="clip6">
  <path d="M 35.355469 30.550781 L 35.355469 47.023438 C 35.355469 51.085938 31.324219 52.539062 26.355469 52.539062 C 21.382812 52.539062 17.355469 51.085938 17.355469 47.023438 L 17.355469 30.359375 "/>
</clipPath>
<linearGradient id="linear2" gradientUnits="userSpaceOnUse" x1="0" y1="0" x2="1" y2="0" gradientTransform="matrix(26.651388,19.862409,-19.861849,26.65214,20.54242,35.659209)">
<stop offset="0" style="stop-color:rgb(54.901961%,60.784314%,83.921569%);stop-opacity:1;"/>
<stop offset="1" style="stop-color:rgb(31.372549%,36.862745%,60.784314%);stop-opacity:1;"/>
</linearGradient>
<clipPath id="clip7">
  <path d="M 44 30 L 63 30 L 63 53 L 44 53 Z M 44 30 "/>
</clipPath>
<clipPath id="clip8">
  <path d="M 62.886719 30.753906 L 62.886719 47.226562 C 62.886719 51.285156 58.855469 52.742188 53.886719 52.742188 C 48.917969 52.742188 44.886719 51.285156 44.886719 47.226562 L 44.886719 30.558594 "/>
</clipPath>
<linearGradient id="linear3" gradientUnits="userSpaceOnUse" x1="0" y1="0" x2="1" y2="0" gradientTransform="matrix(26.651112,19.862224,-19.861664,26.651863,30.570419,22.814994)">
<stop offset="0" style="stop-color:rgb(54.901961%,60.784314%,83.921569%);stop-opacity:1;"/>
<stop offset="1" style="stop-color:rgb(31.372549%,36.862745%,60.784314%);stop-opacity:1;"/>
</linearGradient>
<clipPath id="clip9">
  <path d="M 24 8 L 31 8 L 31 25 L 24 25 Z M 24 8 "/>
</clipPath>
<clipPath id="clip10">
  <path d="M 27.78125 8.058594 C 31.289062 13.757812 30.914062 18.570312 26.242188 21.09375 C 23.449219 22.605469 24.988281 24.601562 24.988281 24.601562 "/>
</clipPath>
<linearGradient id="linear4" gradientUnits="userSpaceOnUse" x1="0" y1="0" x2="1" y2="0" gradientTransform="matrix(25.870269,19.28028,-19.279736,25.870998,31.95025,20.47658)">
<stop offset="0" style="stop-color:rgb(50.196078%,56.078431%,81.568627%);stop-opacity:1;"/>
<stop offset="1" style="stop-color:rgb(31.372549%,36.862745%,60.784314%);stop-opacity:1;"/>
</linearGradient>
<clipPath id="clip11">
  <path d="M 0 4 L 70 4 L 70 54 L 0 54 Z M 0 4 "/>
</clipPath>
<clipPath id="clip12">
  <path d="M 48.257812 4.015625 C 48.257812 4.015625 42.4375 3.949219 21.175781 4.652344 C -0.0859375 5.355469 0.699219 12.980469 0.664062 23.929688 L 0.664062 50.269531 C 0.664062 52.496094 2.59375 53.394531 4.976562 53.394531 C 7.359375 53.394531 9.292969 52.496094 9.292969 50.269531 C 9.292969 50.269531 9.839844 42.742188 10.316406 38.164062 C 11.375 21.535156 31.449219 40.898438 46.042969 39.996094 C 59.304688 39.171875 69.75 34.597656 69.75 23.71875 C 69.75 12.835938 62.90625 4.015625 48.257812 4.015625 Z M 48.257812 4.015625 "/>
</clipPath>
<linearGradient id="linear5" gradientUnits="userSpaceOnUse" x1="0" y1="0" x2="1" y2="0" gradientTransform="matrix(26.904097,20.050754,-20.050189,26.904856,27.500381,26.858879)">
<stop offset="0" style="stop-color:rgb(54.901961%,60.784314%,83.921569%);stop-opacity:1;"/>
<stop offset="1" style="stop-color:rgb(31.372549%,36.862745%,60.784314%);stop-opacity:1;"/>
</linearGradient>
<clipPath id="clip13">
  <path d="M 1 24 L 3 24 L 3 51 L 1 51 Z M 1 24 "/>
</clipPath>
<clipPath id="clip14">
  <path d="M 1.246094 24.652344 C 1.269531 27.125 0.921875 48.730469 2.285156 50.027344 C 1.855469 49.070312 2.792969 28.140625 2.78125 26.824219 L 2.769531 26.054688 C 2.769531 25.691406 2.769531 25.328125 2.769531 24.96875 C 2.242188 24.773438 1.734375 24.535156 1.238281 24.261719 Z M 1.246094 24.652344 "/>
</clipPath>
<linearGradient id="linear6" gradientUnits="userSpaceOnUse" x1="0" y1="0" x2="1" y2="0" gradientTransform="matrix(17.813404,25.96285,-25.962118,17.813906,-9.349857,20.195921)">
<stop offset="0" style="stop-color:rgb(98.039216%,98.039216%,99.215686%);stop-opacity:1;"/>
<stop offset="1" style="stop-color:rgb(53.333333%,57.254902%,82.352941%);stop-opacity:1;"/>
</linearGradient>
<clipPath id="clip15">
  <path d="M 1 4 L 67 4 L 67 26 L 1 26 Z M 1 4 "/>
</clipPath>
<clipPath id="clip16">
  <path d="M 48.25 4.742188 C 48.25 4.742188 42.558594 4.675781 21.753906 5.363281 C 0.949219 6.050781 1.269531 13.71875 1.269531 24.023438 L 1.273438 24.402344 C 1.753906 24.675781 2.253906 24.917969 2.765625 25.109375 C 2.769531 15.359375 3.183594 8.203125 23.25 7.539062 C 44.054688 6.847656 49.75 6.914062 49.75 6.914062 C 57.703125 6.914062 63.183594 9.601562 66.59375 13.792969 C 63.453125 8.367188 57.507812 4.742188 48.25 4.742188 Z M 48.25 4.742188 "/>
</clipPath>
<linearGradient id="linear7" gradientUnits="userSpaceOnUse" x1="0" y1="0" x2="1" y2="0" gradientTransform="matrix(20.756673,30.252658,-30.251805,20.757259,19.979581,-1.283243)">
<stop offset="0" style="stop-color:rgb(98.039216%,98.039216%,99.215686%);stop-opacity:1;"/>
<stop offset="1" style="stop-color:rgb(53.333333%,57.254902%,82.352941%);stop-opacity:1;"/>
</linearGradient>
<clipPath id="clip17">
  <path d="M 23 31 L 42 31 L 42 56 L 23 56 Z M 23 31 "/>
</clipPath>
<clipPath id="clip18">
  <path d="M 41.003906 38.109375 L 41.003906 49.839844 C 41.003906 53.902344 36.972656 55.359375 32.003906 55.359375 C 27.03125 55.359375 23.003906 53.902344 23.003906 49.839844 L 23.003906 31.984375 "/>
</clipPath>
<linearGradient id="linear8" gradientUnits="userSpaceOnUse" x1="0" y1="0" x2="1" y2="0" gradientTransform="matrix(26.637525,19.85208,-19.85152,26.638276,20.119753,36.320433)">
<stop offset="0" style="stop-color:rgb(54.901961%,60.784314%,83.921569%);stop-opacity:1;"/>
<stop offset="1" style="stop-color:rgb(31.372549%,36.862745%,60.784314%);stop-opacity:1;"/>
</linearGradient>
<clipPath id="clip19">
  <path d="M 50 30 L 69 30 L 69 55 L 50 55 Z M 50 30 "/>
</clipPath>
<clipPath id="clip20">
  <path d="M 68.546875 30.046875 L 68.546875 49.378906 C 68.546875 53.441406 64.515625 54.898438 59.546875 54.898438 C 54.574219 54.898438 50.546875 53.441406 50.546875 49.378906 L 50.546875 38.273438 "/>
</clipPath>
<linearGradient id="linear9" gradientUnits="userSpaceOnUse" x1="0" y1="0" x2="1" y2="0" gradientTransform="matrix(26.730112,19.921092,-19.92053,26.730866,32.171574,20.515927)">
<stop offset="0" style="stop-color:rgb(54.901961%,60.784314%,83.921569%);stop-opacity:1;"/>
<stop offset="1" style="stop-color:rgb(31.372549%,36.862745%,60.784314%);stop-opacity:1;"/>
</linearGradient>
<clipPath id="clip21">
  <path d="M 17 0 L 37 0 L 37 29 L 17 29 Z M 17 0 "/>
</clipPath>
<clipPath id="clip22">
  <path d="M 17.578125 6.007812 C 17.578125 6.007812 22.851562 2.382812 26.183594 1.140625 C 27.242188 0.742188 34.902344 -1.28125 36.144531 11.945312 C 36.824219 19.183594 35.601562 24.1875 29.664062 25.09375 C 26.109375 25.636719 26.660156 28.285156 26.660156 28.285156 "/>
</clipPath>
<linearGradient id="linear10" gradientUnits="userSpaceOnUse" x1="0" y1="0" x2="1" y2="0" gradientTransform="matrix(26.689075,19.890505,-19.889944,26.689827,33.767258,18.442802)">
<stop offset="0" style="stop-color:rgb(54.901961%,60.784314%,83.921569%);stop-opacity:1;"/>
<stop offset="1" style="stop-color:rgb(31.372549%,36.862745%,60.784314%);stop-opacity:1;"/>
</linearGradient>
<clipPath id="clip23">
  <path d="M 16 1 L 33 1 L 33 9 L 16 9 Z M 16 1 "/>
</clipPath>
<clipPath id="clip24">
  <path d="M 22.972656 5.046875 C 28.941406 1.316406 32.257812 3.222656 32.257812 3.222656 C 29.660156 0.851562 26.742188 1.636719 26.09375 1.878906 C 22.777344 3.121094 16.367188 7.714844 16.367188 7.714844 C 16.367188 7.714844 15.5 9.25 17.226562 8.917969 C 17.226562 8.917969 20.984375 6.292969 22.972656 5.046875 Z M 22.972656 5.046875 "/>
</clipPath>
<linearGradient id="linear11" gradientUnits="userSpaceOnUse" x1="0" y1="0" x2="1" y2="0" gradientTransform="matrix(21.213461,30.918585,-30.917713,21.214059,19.476622,-0.963544)">
<stop offset="0" style="stop-color:rgb(98.039216%,98.039216%,99.215686%);stop-opacity:1;"/>
<stop offset="1" style="stop-color:rgb(53.333333%,57.254902%,82.352941%);stop-opacity:1;"/>
</linearGradient>
</defs>
<g id="surface1">
<g clip-path="url(#clip1)" clip-rule="nonzero">
<g clip-path="url(#clip2)" clip-rule="nonzero">
<path style=" stroke:none;fill-rule:nonzero;fill:url(#linear0);" d="M 11.269531 7.6875 C 11.269531 7.6875 15.199219 3.339844 17.917969 1.539062 C 18.78125 0.964844 25.226562 -2.425781 29.363281 9.246094 C 31.628906 15.632812 31.664062 20.394531 26.519531 22.421875 C 23.4375 23.640625 24.539062 25.914062 24.539062 25.914062 "/>
</g>
</g>
<path style=" stroke:none;fill-rule:nonzero;fill:rgb(21.176471%,19.607843%,32.941176%);fill-opacity:1;" d="M 17.539062 1.007812 C 14.78125 2.835938 10.929688 7.085938 10.769531 7.265625 C 10.527344 7.53125 10.554688 7.9375 10.832031 8.167969 C 11.109375 8.402344 11.53125 8.375 11.773438 8.109375 C 11.8125 8.0625 15.675781 3.800781 18.292969 2.066406 C 18.371094 2.015625 20.28125 0.777344 22.609375 1.523438 C 25.054688 2.304688 27.171875 5.046875 28.734375 9.453125 C 31.21875 16.464844 30.484375 20.167969 26.269531 21.828125 C 25.054688 22.308594 24.253906 23.003906 23.890625 23.898438 C 23.414062 25.078125 23.917969 26.140625 23.9375 26.1875 C 24.089844 26.507812 24.480469 26.640625 24.8125 26.496094 C 25.144531 26.351562 25.292969 25.972656 25.144531 25.648438 C 25.144531 25.644531 24.859375 25.011719 25.136719 24.351562 C 25.363281 23.804688 25.914062 23.355469 26.773438 23.015625 C 33.128906 20.507812 31.832031 14.226562 29.992188 9.035156 C 28.265625 4.167969 25.921875 1.230469 23.027344 0.304688 C 20.132812 -0.621094 17.796875 0.839844 17.539062 1.007812 "/>
<g clip-path="url(#clip3)" clip-rule="nonzero">
<g clip-path="url(#clip4)" clip-rule="nonzero">
<path style=" stroke:none;fill-rule:nonzero;fill:url(#linear1);" d="M 64.066406 10.203125 L 72.3125 10.203125 C 73.003906 10.203125 73.5625 10.660156 73.5625 11.226562 C 73.5625 11.789062 73.003906 12.25 72.3125 12.25 L 65.839844 12.25 L 64.066406 10.203125 "/>
</g>
</g>
<path style=" stroke:none;fill-rule:nonzero;fill:rgb(21.176471%,19.607843%,32.941176%);fill-opacity:1;" d="M 72.3125 10.84375 C 72.65625 10.84375 72.898438 11.046875 72.898438 11.226562 C 72.898438 11.40625 72.65625 11.605469 72.3125 11.605469 C 72.3125 11.605469 66.714844 11.605469 66.152344 11.605469 C 66.019531 11.457031 65.820312 11.226562 65.488281 10.84375 C 67.4375 10.84375 72.3125 10.84375 72.3125 10.84375 Z M 62.644531 9.5625 L 65.53125 12.890625 L 72.3125 12.890625 C 73.371094 12.890625 74.230469 12.144531 74.230469 11.226562 C 74.230469 10.308594 73.371094 9.5625 72.3125 9.5625 L 62.644531 9.5625 "/>
<path style=" stroke:none;fill-rule:nonzero;fill:rgb(54.509804%,61.568627%,84.313725%);fill-opacity:1;" d="M 74.863281 7.824219 C 75.996094 7.285156 77.320312 7.414062 77.824219 8.117188 C 78.328125 8.824219 77.816406 9.828125 76.683594 10.371094 C 75.550781 10.910156 72.585938 11.5625 72.082031 10.859375 C 71.578125 10.15625 73.730469 8.363281 74.863281 7.824219 "/>
<path style=" stroke:none;fill-rule:nonzero;fill:rgb(21.176471%,19.607843%,32.941176%);fill-opacity:1;" d="M 75.15625 8.398438 C 76.035156 7.980469 77.003906 8.097656 77.277344 8.484375 C 77.355469 8.589844 77.371094 8.714844 77.332031 8.863281 C 77.261719 9.128906 76.976562 9.515625 76.386719 9.796875 C 75.292969 10.316406 73.351562 10.625 72.753906 10.476562 C 72.972656 9.980469 74.1875 8.863281 75.15625 8.398438 Z M 74.570312 7.25 C 73.621094 7.699219 71.691406 9.136719 71.386719 10.273438 L 71.535156 11.222656 C 72.445312 12.5 76.121094 11.355469 76.976562 10.945312 C 77.828125 10.539062 78.429688 9.898438 78.621094 9.183594 C 78.757812 8.675781 78.667969 8.167969 78.375 7.753906 C 77.679688 6.785156 76.007812 6.5625 74.570312 7.25 "/>
<path style=" stroke:none;fill-rule:nonzero;fill:rgb(54.509804%,61.568627%,84.313725%);fill-opacity:1;" d="M 76.878906 11.976562 C 78.09375 12.382812 78.769531 13.320312 78.394531 14.074219 C 78.015625 14.832031 76.726562 15.109375 75.511719 14.703125 C 74.300781 14.300781 71.859375 12.773438 72.238281 12.019531 C 72.617188 11.261719 75.664062 11.570312 76.878906 11.976562 "/>
<path style=" stroke:none;fill-rule:nonzero;fill:rgb(21.176471%,19.607843%,32.941176%);fill-opacity:1;" d="M 77.097656 11.371094 L 77.09375 11.371094 Z M 76.660156 12.582031 C 77.3125 12.800781 77.671875 13.164062 77.785156 13.433594 C 77.875 13.636719 77.816406 13.757812 77.796875 13.796875 C 77.59375 14.199219 76.667969 14.410156 75.730469 14.097656 C 74.660156 13.742188 73.21875 12.734375 72.945312 12.269531 C 73.449219 12.101562 75.488281 12.1875 76.660156 12.582031 Z M 71.636719 11.742188 L 71.640625 12.671875 C 72.105469 13.757812 74.269531 14.96875 75.296875 15.3125 C 76.839844 15.828125 78.464844 15.410156 78.992188 14.355469 C 79.105469 14.128906 79.160156 13.882812 79.160156 13.636719 C 79.160156 13.40625 79.113281 13.167969 79.011719 12.9375 C 78.714844 12.25 78.015625 11.675781 77.09375 11.371094 C 76.175781 11.0625 72.332031 10.347656 71.636719 11.742188 "/>
<path style=" stroke:none;fill-rule:nonzero;fill:rgb(54.509804%,61.568627%,84.313725%);fill-opacity:1;" d="M 77.054688 9.652344 C 78.859375 9.640625 80.328125 10.289062 80.335938 11.105469 C 80.34375 11.917969 78.890625 12.585938 77.085938 12.597656 C 75.285156 12.613281 71.203125 11.980469 71.195312 11.167969 C 71.1875 10.351562 75.253906 9.664062 77.054688 9.652344 "/>
<path style=" stroke:none;fill-rule:nonzero;fill:rgb(21.176471%,19.607843%,32.941176%);fill-opacity:1;" d="M 79.667969 11.109375 C 79.667969 11.140625 79.640625 11.203125 79.558594 11.28125 C 79.234375 11.601562 78.316406 11.949219 77.082031 11.957031 C 75.535156 11.96875 73.089844 11.546875 72.148438 11.160156 C 73.082031 10.753906 75.515625 10.300781 77.0625 10.292969 L 77.058594 10.292969 C 78.769531 10.28125 79.667969 10.894531 79.667969 11.109375 Z M 77.050781 9.007812 C 75.742188 9.019531 71.851562 9.480469 70.851562 10.457031 L 70.53125 11.171875 C 70.550781 13.058594 77.023438 13.242188 77.089844 13.242188 C 78.542969 13.230469 79.851562 12.824219 80.507812 12.179688 C 80.835938 11.859375 81.003906 11.488281 81 11.097656 C 80.988281 9.875 79.328125 8.996094 77.050781 9.007812 "/>
<g clip-path="url(#clip5)" clip-rule="nonzero">
<g clip-path="url(#clip6)" clip-rule="nonzero">
<path style=" stroke:none;fill-rule:nonzero;fill:url(#linear2);" d="M 35.355469 30.550781 L 35.355469 47.023438 C 35.355469 51.085938 31.324219 52.539062 26.355469 52.539062 C 21.382812 52.539062 17.355469 51.085938 17.355469 47.023438 L 17.355469 30.359375 "/>
</g>
</g>
<path style=" stroke:none;fill-rule:nonzero;fill:rgb(21.176471%,19.607843%,32.941176%);fill-opacity:1;" d="M 16.691406 30.359375 L 16.691406 47.023438 C 16.691406 50.996094 20.121094 53.183594 26.355469 53.183594 C 32.585938 53.183594 36.019531 50.996094 36.019531 47.023438 L 36.019531 30.550781 C 36.019531 30.199219 35.722656 29.910156 35.355469 29.910156 C 34.988281 29.910156 34.6875 30.199219 34.6875 30.550781 L 34.6875 47.023438 C 34.6875 51.054688 30.15625 51.898438 26.355469 51.898438 C 22.550781 51.898438 18.019531 51.054688 18.019531 47.023438 L 18.019531 30.359375 C 18.019531 30.003906 17.722656 29.71875 17.355469 29.71875 C 16.988281 29.71875 16.691406 30.003906 16.691406 30.359375 "/>
<path style=" stroke:none;fill-rule:nonzero;fill:rgb(54.509804%,61.568627%,84.313725%);fill-opacity:1;" d="M 21.300781 47.003906 C 21.300781 48.648438 20.347656 49.984375 19.171875 49.984375 C 17.996094 49.984375 17.042969 48.648438 17.042969 47.003906 C 17.042969 45.359375 17.996094 41.640625 19.171875 41.640625 C 20.347656 41.640625 21.300781 45.359375 21.300781 47.003906 "/>
<path style=" stroke:none;fill-rule:nonzero;fill:rgb(21.176471%,19.607843%,32.941176%);fill-opacity:1;" d="M 17.265625 47.003906 C 17.265625 45.214844 18.273438 41.855469 19.171875 41.855469 C 20.066406 41.855469 21.078125 45.214844 21.078125 47.003906 C 21.078125 48.53125 20.222656 49.769531 19.171875 49.769531 C 18.121094 49.769531 17.265625 48.53125 17.265625 47.003906 Z M 16.820312 47.003906 C 16.820312 48.765625 17.875 50.199219 19.171875 50.199219 C 20.46875 50.199219 21.519531 48.765625 21.519531 47.003906 C 21.519531 45.394531 20.585938 41.425781 19.171875 41.425781 C 17.757812 41.425781 16.820312 45.394531 16.820312 47.003906 "/>
<path style=" stroke:none;fill-rule:nonzero;fill:rgb(65.098039%,74.117647%,90.196078%);fill-opacity:1;" d="M 17.617188 47.300781 C 17.617188 45.71875 18.769531 42.867188 19.609375 42.867188 C 19.691406 42.867188 19.769531 42.910156 19.84375 42.96875 C 19.632812 42.46875 19.394531 42.136719 19.136719 42.136719 C 18.296875 42.136719 17.617188 45.71875 17.617188 47.300781 "/>
<path style=" stroke:none;fill-rule:nonzero;fill:rgb(54.509804%,61.568627%,84.313725%);fill-opacity:1;" d="M 22.304688 48.585938 C 22.304688 49.855469 21.546875 50.886719 20.609375 50.886719 C 19.675781 50.886719 18.917969 49.855469 18.917969 48.585938 C 18.917969 47.3125 19.675781 44.445312 20.609375 44.445312 C 21.546875 44.445312 22.304688 47.3125 22.304688 48.585938 "/>
<path style=" stroke:none;fill-rule:nonzero;fill:rgb(21.176471%,19.607843%,32.941176%);fill-opacity:1;" d="M 19.136719 48.585938 C 19.136719 47.257812 19.933594 44.660156 20.609375 44.660156 C 21.289062 44.660156 22.082031 47.257812 22.082031 48.585938 C 22.082031 49.734375 21.421875 50.671875 20.609375 50.671875 C 19.796875 50.671875 19.136719 49.734375 19.136719 48.585938 Z M 18.695312 48.585938 C 18.695312 49.972656 19.554688 51.101562 20.609375 51.101562 C 21.664062 51.101562 22.523438 49.972656 22.523438 48.585938 C 22.523438 47.503906 21.84375 44.230469 20.609375 44.230469 C 19.375 44.230469 18.695312 47.503906 18.695312 48.585938 "/>
<path style=" stroke:none;fill-rule:nonzero;fill:rgb(65.098039%,74.117647%,90.196078%);fill-opacity:1;" d="M 19.628906 47.832031 C 19.542969 46.925781 20.335938 45.425781 20.957031 45.3125 C 21.011719 45.308594 21.074219 45.320312 21.132812 45.34375 C 20.949219 45.085938 20.746094 44.878906 20.570312 44.960938 C 19.957031 45.25 19.542969 46.929688 19.628906 47.832031 "/>
<g clip-path="url(#clip7)" clip-rule="nonzero">
<g clip-path="url(#clip8)" clip-rule="nonzero">
<path style=" stroke:none;fill-rule:nonzero;fill:url(#linear3);" d="M 62.886719 30.753906 L 62.886719 47.226562 C 62.886719 51.285156 58.855469 52.742188 53.886719 52.742188 C 48.917969 52.742188 44.886719 51.285156 44.886719 47.226562 L 44.886719 30.558594 "/>
</g>
</g>
<path style=" stroke:none;fill-rule:nonzero;fill:rgb(21.176471%,19.607843%,32.941176%);fill-opacity:1;" d="M 44.222656 30.558594 L 44.222656 47.226562 C 44.222656 51.195312 47.65625 53.382812 53.886719 53.382812 C 56.691406 53.382812 58.941406 52.941406 60.574219 52.066406 C 62.523438 51.023438 63.550781 49.351562 63.550781 47.226562 L 63.550781 30.753906 C 63.550781 30.398438 63.253906 30.113281 62.886719 30.113281 C 62.519531 30.113281 62.222656 30.398438 62.222656 30.753906 L 62.222656 47.226562 C 62.222656 48.902344 61.472656 50.121094 59.929688 50.945312 C 58.515625 51.699219 56.425781 52.101562 53.886719 52.101562 C 50.085938 52.101562 45.550781 51.253906 45.550781 47.226562 L 45.550781 30.558594 C 45.550781 30.203125 45.253906 29.917969 44.886719 29.917969 C 44.519531 29.917969 44.222656 30.203125 44.222656 30.558594 "/>
<path style=" stroke:none;fill-rule:nonzero;fill:rgb(45.490196%,51.372549%,79.215686%);fill-opacity:1;" d="M 48.832031 47.203125 C 48.832031 48.847656 47.878906 50.183594 46.703125 50.183594 C 45.527344 50.183594 44.574219 48.847656 44.574219 47.203125 C 44.574219 45.558594 45.527344 41.84375 46.703125 41.84375 C 47.878906 41.84375 48.832031 45.558594 48.832031 47.203125 "/>
<path style=" stroke:none;fill-rule:nonzero;fill:rgb(21.176471%,19.607843%,32.941176%);fill-opacity:1;" d="M 44.796875 47.203125 C 44.796875 46.363281 45.050781 45.035156 45.410156 43.972656 C 45.8125 42.792969 46.308594 42.054688 46.703125 42.054688 C 47.601562 42.054688 48.609375 45.414062 48.609375 47.203125 C 48.609375 48.730469 47.753906 49.972656 46.703125 49.972656 C 45.652344 49.972656 44.796875 48.730469 44.796875 47.203125 Z M 44.988281 43.839844 C 44.613281 44.941406 44.355469 46.324219 44.355469 47.203125 C 44.355469 48.964844 45.410156 50.398438 46.703125 50.398438 C 48 50.398438 49.054688 48.964844 49.054688 47.203125 C 49.054688 45.597656 48.117188 41.628906 46.703125 41.628906 C 45.90625 41.628906 45.332031 42.832031 44.988281 43.839844 "/>
<path style=" stroke:none;fill-rule:nonzero;fill:rgb(51.372549%,60.392157%,83.921569%);fill-opacity:1;" d="M 45.148438 47.503906 C 45.148438 45.921875 46.300781 43.070312 47.140625 43.070312 C 47.222656 43.070312 47.300781 43.109375 47.378906 43.171875 C 47.167969 42.667969 46.925781 42.335938 46.671875 42.335938 C 45.828125 42.335938 45.148438 45.921875 45.148438 47.503906 "/>
<path style=" stroke:none;fill-rule:nonzero;fill:rgb(45.490196%,51.372549%,79.215686%);fill-opacity:1;" d="M 49.835938 48.785156 C 49.835938 50.058594 49.078125 51.085938 48.144531 51.085938 C 47.210938 51.085938 46.449219 50.058594 46.449219 48.785156 C 46.449219 47.515625 47.210938 44.648438 48.144531 44.648438 C 49.078125 44.648438 49.835938 47.515625 49.835938 48.785156 "/>
<path style=" stroke:none;fill-rule:nonzero;fill:rgb(21.176471%,19.607843%,32.941176%);fill-opacity:1;" d="M 46.671875 48.785156 C 46.671875 47.457031 47.464844 44.859375 48.144531 44.859375 C 48.820312 44.859375 49.613281 47.457031 49.613281 48.785156 C 49.613281 49.9375 48.953125 50.871094 48.144531 50.871094 C 47.332031 50.871094 46.671875 49.9375 46.671875 48.785156 Z M 46.230469 48.785156 C 46.230469 50.171875 47.089844 51.300781 48.144531 51.300781 C 49.199219 51.300781 50.058594 50.171875 50.058594 48.785156 C 50.058594 47.703125 49.378906 44.433594 48.144531 44.433594 C 46.90625 44.433594 46.230469 47.703125 46.230469 48.785156 "/>
<path style=" stroke:none;fill-rule:nonzero;fill:rgb(51.372549%,60.392157%,83.921569%);fill-opacity:1;" d="M 47.164062 48.03125 C 47.078125 47.128906 47.871094 45.625 48.488281 45.515625 C 48.546875 45.507812 48.605469 45.519531 48.664062 45.546875 C 48.484375 45.285156 48.277344 45.078125 48.101562 45.160156 C 47.492188 45.453125 47.078125 47.128906 47.164062 48.03125 "/>
<g clip-path="url(#clip9)" clip-rule="nonzero">
<g clip-path="url(#clip10)" clip-rule="nonzero">
<path style=" stroke:none;fill-rule:nonzero;fill:url(#linear4);" d="M 27.78125 8.058594 C 31.289062 13.757812 30.914062 18.570312 26.242188 21.09375 C 23.449219 22.605469 24.988281 24.601562 24.988281 24.601562 "/>
</g>
</g>
<path style=" stroke:none;fill-rule:nonzero;fill:rgb(3.137255%,2.352941%,1.568627%);fill-opacity:1;" d="M 27.441406 7.503906 C 27.125 7.6875 27.023438 8.078125 27.210938 8.382812 C 29.160156 11.554688 29.859375 14.425781 29.230469 16.6875 C 28.785156 18.292969 27.667969 19.589844 25.917969 20.535156 C 24.8125 21.132812 24.15625 21.886719 23.957031 22.773438 C 23.691406 23.976562 24.421875 24.941406 24.453125 24.984375 C 24.671875 25.265625 25.082031 25.324219 25.378906 25.117188 C 25.671875 24.90625 25.738281 24.507812 25.523438 24.222656 C 25.519531 24.214844 25.117188 23.660156 25.261719 23.027344 C 25.378906 22.523438 25.820312 22.058594 26.570312 21.652344 C 28.644531 20.53125 29.972656 18.972656 30.515625 17.019531 C 31.238281 14.417969 30.492188 11.203125 28.355469 7.730469 C 28.167969 7.425781 27.757812 7.324219 27.441406 7.503906 "/>
<g clip-path="url(#clip11)" clip-rule="nonzero">
<g clip-path="url(#clip12)" clip-rule="nonzero">
<path style=" stroke:none;fill-rule:nonzero;fill:url(#linear5);" d="M 48.257812 4.015625 C 48.257812 4.015625 42.4375 3.949219 21.175781 4.652344 C -0.0859375 5.355469 0.699219 12.980469 0.664062 23.929688 L 0.664062 50.269531 C 0.664062 52.496094 2.59375 53.394531 4.976562 53.394531 C 7.359375 53.394531 9.292969 52.496094 9.292969 50.269531 C 9.292969 50.269531 9.839844 42.742188 10.316406 38.164062 C 11.375 21.535156 31.449219 40.898438 46.042969 39.996094 C 59.304688 39.171875 69.75 34.597656 69.75 23.71875 C 69.75 12.835938 62.90625 4.015625 48.257812 4.015625 "/>
</g>
</g>
<path style=" stroke:none;fill-rule:nonzero;fill:rgb(21.176471%,19.607843%,32.941176%);fill-opacity:1;" d="M 1.328125 50.269531 L 1.328125 23.929688 C 1.328125 23.933594 1.332031 22.769531 1.332031 22.769531 C 1.335938 12.640625 1.339844 5.949219 21.199219 5.292969 C 42.183594 4.597656 48.191406 4.65625 48.25 4.65625 L 48.257812 4.65625 C 54.945312 4.65625 60.394531 6.585938 64.015625 10.230469 C 67.332031 13.566406 69.082031 18.230469 69.082031 23.71875 C 69.082031 35.460938 56.53125 38.703125 46 39.355469 C 40.460938 39.699219 33.921875 36.957031 28.15625 34.539062 C 21.691406 31.828125 16.105469 29.488281 12.667969 31.519531 C 10.851562 32.59375 9.867188 34.753906 9.652344 38.125 C 9.183594 42.636719 8.632812 50.148438 8.628906 50.222656 C 8.625 52.429688 6.339844 52.753906 4.976562 52.753906 C 3.617188 52.753906 1.328125 52.429688 1.328125 50.269531 Z M 21.152344 4.011719 C 0.0078125 4.710938 0.00390625 12.285156 0 22.769531 L 0 50.269531 C 0 52.628906 1.859375 54.035156 4.976562 54.035156 C 8.097656 54.035156 9.957031 52.628906 9.957031 50.269531 C 9.960938 50.238281 10.507812 42.742188 10.976562 38.226562 C 11.164062 35.28125 11.945312 33.453125 13.363281 32.613281 C 16.210938 30.933594 21.753906 33.253906 27.625 35.714844 C 33.53125 38.191406 40.222656 41 46.085938 40.636719 C 61.773438 39.664062 70.414062 33.65625 70.414062 23.71875 C 70.414062 17.894531 68.53125 12.921875 64.976562 9.34375 C 61.097656 5.4375 55.316406 3.375 48.257812 3.375 L 48.265625 3.375 C 48.207031 3.375 42.1875 3.3125 21.152344 4.011719 "/>
<g clip-path="url(#clip13)" clip-rule="nonzero">
<g clip-path="url(#clip14)" clip-rule="nonzero">
<path style=" stroke:none;fill-rule:nonzero;fill:url(#linear6);" d="M 1.246094 24.652344 C 1.269531 27.125 0.921875 48.730469 2.285156 50.027344 C 1.855469 49.070312 2.792969 28.140625 2.78125 26.824219 L 2.769531 26.054688 C 2.769531 25.691406 2.769531 25.328125 2.769531 24.96875 C 2.242188 24.773438 1.734375 24.535156 1.238281 24.261719 L 1.246094 24.652344 "/>
</g>
</g>
<g clip-path="url(#clip15)" clip-rule="nonzero">
<g clip-path="url(#clip16)" clip-rule="nonzero">
<path style=" stroke:none;fill-rule:nonzero;fill:url(#linear7);" d="M 48.25 4.742188 C 48.25 4.742188 42.558594 4.675781 21.753906 5.363281 C 0.949219 6.050781 1.269531 13.71875 1.269531 24.023438 L 1.273438 24.402344 C 1.753906 24.675781 2.253906 24.917969 2.765625 25.109375 C 2.769531 15.359375 3.183594 8.203125 23.25 7.539062 C 44.054688 6.847656 49.75 6.914062 49.75 6.914062 C 57.703125 6.914062 63.183594 9.601562 66.59375 13.792969 C 63.453125 8.367188 57.507812 4.742188 48.25 4.742188 "/>
</g>
</g>
<g clip-path="url(#clip17)" clip-rule="nonzero">
<g clip-path="url(#clip18)" clip-rule="nonzero">
<path style=" stroke:none;fill-rule:nonzero;fill:url(#linear8);" d="M 41.003906 38.109375 L 41.003906 49.839844 C 41.003906 53.902344 36.972656 55.359375 32.003906 55.359375 C 27.03125 55.359375 23.003906 53.902344 23.003906 49.839844 L 23.003906 31.984375 "/>
</g>
</g>
<path style=" stroke:none;fill-rule:nonzero;fill:rgb(21.176471%,19.607843%,32.941176%);fill-opacity:1;" d="M 22.339844 31.984375 L 22.339844 49.839844 C 22.339844 53.8125 25.773438 56 32.003906 56 C 38.234375 56 41.667969 53.8125 41.667969 49.839844 L 41.667969 38.109375 C 41.667969 37.753906 41.371094 37.46875 41.003906 37.46875 C 40.636719 37.46875 40.339844 37.753906 40.339844 38.109375 L 40.339844 49.839844 C 40.339844 53.871094 35.804688 54.71875 32.003906 54.71875 C 28.203125 54.71875 23.667969 53.871094 23.667969 49.839844 L 23.667969 31.984375 C 23.667969 31.632812 23.371094 31.34375 23.003906 31.34375 C 22.636719 31.34375 22.339844 31.632812 22.339844 31.984375 "/>
<path style=" stroke:none;fill-rule:nonzero;fill:rgb(54.509804%,61.568627%,84.313725%);fill-opacity:1;" d="M 28.664062 50.976562 C 28.664062 52.503906 27.394531 53.742188 25.824219 53.742188 C 24.257812 53.742188 22.984375 52.503906 22.984375 50.976562 C 22.984375 49.445312 24.257812 45.996094 25.824219 45.996094 C 27.394531 45.996094 28.664062 49.445312 28.664062 50.976562 "/>
<path style=" stroke:none;fill-rule:nonzero;fill:rgb(21.176471%,19.607843%,32.941176%);fill-opacity:1;" d="M 23.207031 50.976562 C 23.207031 49.488281 24.472656 46.207031 25.824219 46.207031 C 27.179688 46.207031 28.445312 49.488281 28.445312 50.976562 C 28.445312 52.386719 27.269531 53.53125 25.824219 53.53125 C 24.382812 53.53125 23.207031 52.386719 23.207031 50.976562 Z M 22.761719 50.976562 C 22.761719 52.621094 24.136719 53.957031 25.824219 53.957031 C 27.515625 53.957031 28.886719 52.621094 28.886719 50.976562 C 28.886719 49.425781 27.59375 45.777344 25.824219 45.777344 C 24.058594 45.777344 22.761719 49.425781 22.761719 50.976562 "/>
<path style=" stroke:none;fill-rule:nonzero;fill:rgb(65.098039%,74.117647%,90.196078%);fill-opacity:1;" d="M 23.46875 51.160156 C 23.46875 49.792969 25.058594 47.332031 26.222656 47.332031 C 26.335938 47.332031 26.441406 47.367188 26.550781 47.421875 C 26.257812 46.988281 25.925781 46.703125 25.574219 46.703125 C 24.410156 46.703125 23.46875 49.792969 23.46875 51.160156 "/>
<path style=" stroke:none;fill-rule:nonzero;fill:rgb(54.509804%,61.568627%,84.313725%);fill-opacity:1;" d="M 30.980469 51.191406 C 30.980469 53.207031 29.664062 54.847656 28.039062 54.847656 C 26.414062 54.847656 25.097656 53.207031 25.097656 51.191406 C 25.097656 49.175781 26.414062 44.617188 28.039062 44.617188 C 29.664062 44.617188 30.980469 49.175781 30.980469 51.191406 "/>
<path style=" stroke:none;fill-rule:nonzero;fill:rgb(21.176471%,19.607843%,32.941176%);fill-opacity:1;" d="M 25.316406 51.191406 C 25.316406 49.207031 26.632812 44.832031 28.039062 44.832031 C 29.445312 44.832031 30.757812 49.207031 30.757812 51.191406 C 30.757812 53.089844 29.539062 54.632812 28.039062 54.632812 C 26.539062 54.632812 25.316406 53.089844 25.316406 51.191406 Z M 24.875 51.191406 C 24.875 53.324219 26.292969 55.0625 28.039062 55.0625 C 29.78125 55.0625 31.199219 53.324219 31.199219 51.191406 C 31.199219 49.167969 29.867188 44.40625 28.039062 44.40625 C 26.210938 44.40625 24.875 49.167969 24.875 51.191406 "/>
<path style=" stroke:none;fill-rule:nonzero;fill:rgb(65.098039%,74.117647%,90.196078%);fill-opacity:1;" d="M 25.890625 51.558594 C 25.890625 49.617188 27.480469 46.125 28.644531 46.125 C 28.753906 46.125 28.863281 46.175781 28.96875 46.25 C 28.679688 45.632812 28.34375 45.226562 27.992188 45.226562 C 26.828125 45.226562 25.890625 49.617188 25.890625 51.558594 "/>
<path style=" stroke:none;fill-rule:nonzero;fill:rgb(54.509804%,61.568627%,84.313725%);fill-opacity:1;" d="M 32.523438 52.277344 C 32.523438 53.703125 31.574219 54.859375 30.40625 54.859375 C 29.238281 54.859375 28.289062 53.703125 28.289062 52.277344 C 28.289062 50.84375 29.238281 47.621094 30.40625 47.621094 C 31.574219 47.621094 32.523438 50.84375 32.523438 52.277344 "/>
<path style=" stroke:none;fill-rule:nonzero;fill:rgb(21.176471%,19.607843%,32.941176%);fill-opacity:1;" d="M 28.511719 52.277344 C 28.511719 50.734375 29.515625 47.835938 30.40625 47.835938 C 31.296875 47.835938 32.300781 50.734375 32.300781 52.277344 C 32.300781 53.585938 31.453125 54.648438 30.40625 54.648438 C 29.363281 54.648438 28.511719 53.585938 28.511719 52.277344 Z M 28.066406 52.277344 C 28.066406 53.820312 29.117188 55.074219 30.40625 55.074219 C 31.695312 55.074219 32.742188 53.820312 32.742188 52.277344 C 32.742188 50.875 31.8125 47.40625 30.40625 47.40625 C 29 47.40625 28.066406 50.875 28.066406 52.277344 "/>
<path style=" stroke:none;fill-rule:nonzero;fill:rgb(65.098039%,74.117647%,90.196078%);fill-opacity:1;" d="M 29.179688 51.425781 C 29.074219 50.40625 30.066406 48.71875 30.835938 48.597656 C 30.910156 48.585938 30.984375 48.601562 31.058594 48.628906 C 30.832031 48.335938 30.574219 48.105469 30.355469 48.195312 C 29.589844 48.527344 29.074219 50.410156 29.179688 51.425781 "/>
<g clip-path="url(#clip19)" clip-rule="nonzero">
<g clip-path="url(#clip20)" clip-rule="nonzero">
<path style=" stroke:none;fill-rule:nonzero;fill:url(#linear9);" d="M 68.546875 30.046875 L 68.546875 49.378906 C 68.546875 53.441406 64.515625 54.898438 59.546875 54.898438 C 54.574219 54.898438 50.546875 53.441406 50.546875 49.378906 L 50.546875 38.273438 "/>
</g>
</g>
<path style=" stroke:none;fill-rule:nonzero;fill:rgb(21.176471%,19.607843%,32.941176%);fill-opacity:1;" d="M 67.878906 30.046875 L 67.878906 49.378906 C 67.878906 53.410156 63.347656 54.257812 59.546875 54.257812 C 55.746094 54.257812 51.210938 53.410156 51.210938 49.378906 L 51.210938 38.273438 C 51.210938 37.917969 50.914062 37.632812 50.546875 37.632812 C 50.179688 37.632812 49.882812 37.917969 49.882812 38.273438 L 49.882812 49.378906 C 49.882812 53.351562 53.3125 55.542969 59.546875 55.542969 C 65.777344 55.542969 69.210938 53.351562 69.210938 49.378906 L 69.210938 30.046875 C 69.210938 29.695312 68.914062 29.40625 68.546875 29.40625 C 68.179688 29.40625 67.878906 29.695312 67.878906 30.046875 "/>
<path style=" stroke:none;fill-rule:nonzero;fill:rgb(54.509804%,61.568627%,84.313725%);fill-opacity:1;" d="M 56.207031 50.519531 C 56.207031 52.042969 54.9375 53.285156 53.367188 53.285156 C 51.800781 53.285156 50.527344 52.042969 50.527344 50.519531 C 50.527344 48.988281 51.800781 45.535156 53.367188 45.535156 C 54.9375 45.535156 56.207031 48.988281 56.207031 50.519531 "/>
<path style=" stroke:none;fill-rule:nonzero;fill:rgb(21.176471%,19.607843%,32.941176%);fill-opacity:1;" d="M 50.75 50.519531 C 50.75 49.027344 52.015625 45.75 53.367188 45.75 C 54.722656 45.75 55.988281 49.027344 55.988281 50.519531 C 55.988281 51.925781 54.8125 53.070312 53.367188 53.070312 C 51.925781 53.070312 50.75 51.925781 50.75 50.519531 Z M 50.304688 50.519531 C 50.304688 52.160156 51.679688 53.5 53.367188 53.5 C 55.054688 53.5 56.429688 52.160156 56.429688 50.519531 C 56.429688 48.96875 55.136719 45.320312 53.367188 45.320312 C 51.597656 45.320312 50.304688 48.96875 50.304688 50.519531 "/>
<path style=" stroke:none;fill-rule:nonzero;fill:rgb(65.098039%,74.117647%,90.196078%);fill-opacity:1;" d="M 51.011719 50.699219 C 51.011719 49.332031 52.601562 46.875 53.765625 46.875 C 53.878906 46.875 53.984375 46.910156 54.09375 46.960938 C 53.800781 46.53125 53.46875 46.242188 53.117188 46.242188 C 51.953125 46.242188 51.011719 49.335938 51.011719 50.699219 "/>
<path style=" stroke:none;fill-rule:nonzero;fill:rgb(54.509804%,61.568627%,84.313725%);fill-opacity:1;" d="M 58.523438 50.734375 C 58.523438 52.75 57.207031 54.390625 55.582031 54.390625 C 53.953125 54.390625 52.640625 52.75 52.640625 50.734375 C 52.640625 48.714844 53.953125 44.160156 55.582031 44.160156 C 57.207031 44.160156 58.523438 48.714844 58.523438 50.734375 "/>
<path style=" stroke:none;fill-rule:nonzero;fill:rgb(21.176471%,19.607843%,32.941176%);fill-opacity:1;" d="M 52.859375 50.734375 C 52.859375 48.746094 54.175781 44.375 55.582031 44.375 C 56.984375 44.375 58.300781 48.746094 58.300781 50.734375 C 58.300781 52.628906 57.082031 54.175781 55.582031 54.175781 C 54.082031 54.175781 52.859375 52.628906 52.859375 50.734375 Z M 52.417969 50.734375 C 52.417969 52.867188 53.835938 54.601562 55.582031 54.601562 C 57.324219 54.601562 58.742188 52.867188 58.742188 50.734375 C 58.742188 48.707031 57.410156 43.945312 55.582031 43.945312 C 53.753906 43.945312 52.417969 48.707031 52.417969 50.734375 "/>
<path style=" stroke:none;fill-rule:nonzero;fill:rgb(65.098039%,74.117647%,90.196078%);fill-opacity:1;" d="M 53.433594 51.101562 C 53.433594 49.15625 55.023438 45.664062 56.183594 45.664062 C 56.296875 45.664062 56.40625 45.714844 56.511719 45.789062 C 56.222656 45.171875 55.886719 44.765625 55.535156 44.765625 C 54.371094 44.765625 53.433594 49.160156 53.433594 51.101562 "/>
<path style=" stroke:none;fill-rule:nonzero;fill:rgb(54.509804%,61.568627%,84.313725%);fill-opacity:1;" d="M 60.066406 51.820312 C 60.066406 53.246094 59.117188 54.402344 57.949219 54.402344 C 56.78125 54.402344 55.832031 53.246094 55.832031 51.820312 C 55.832031 50.386719 56.78125 47.160156 57.949219 47.160156 C 59.117188 47.160156 60.066406 50.386719 60.066406 51.820312 "/>
<path style=" stroke:none;fill-rule:nonzero;fill:rgb(21.176471%,19.607843%,32.941176%);fill-opacity:1;" d="M 56.054688 51.820312 C 56.054688 50.273438 57.058594 47.375 57.949219 47.375 C 58.839844 47.375 59.84375 50.273438 59.84375 51.820312 C 59.84375 53.125 58.992188 54.1875 57.949219 54.1875 C 56.90625 54.1875 56.054688 53.125 56.054688 51.820312 Z M 55.609375 51.820312 C 55.609375 53.363281 56.660156 54.617188 57.949219 54.617188 C 59.238281 54.617188 60.285156 53.363281 60.285156 51.820312 C 60.285156 50.414062 59.355469 46.949219 57.949219 46.949219 C 56.542969 46.949219 55.609375 50.414062 55.609375 51.820312 "/>
<path style=" stroke:none;fill-rule:nonzero;fill:rgb(65.098039%,74.117647%,90.196078%);fill-opacity:1;" d="M 56.722656 50.96875 C 56.617188 49.949219 57.609375 48.261719 58.378906 48.136719 C 58.453125 48.125 58.527344 48.140625 58.601562 48.171875 C 58.375 47.878906 58.117188 47.644531 57.898438 47.738281 C 57.132812 48.066406 56.617188 49.953125 56.722656 50.96875 "/>
<path style=" stroke:none;fill-rule:nonzero;fill:rgb(21.176471%,19.607843%,32.941176%);fill-opacity:1;" d="M 6.304688 13.191406 C 6.070312 13.507812 6.152344 13.949219 6.488281 14.171875 C 6.828125 14.394531 7.292969 14.3125 7.527344 13.996094 C 8.863281 12.179688 11.871094 11.679688 13.300781 12.195312 C 13.585938 12.296875 13.945312 12.253906 14.105469 12.09375 C 14.261719 11.933594 14.160156 11.71875 13.875 11.617188 C 11.914062 10.910156 8.074219 10.78125 6.304688 13.191406 "/>
<path style=" stroke:none;fill-rule:nonzero;fill:rgb(21.176471%,19.607843%,32.941176%);fill-opacity:1;" d="M 12.097656 21.175781 C 10.863281 21.4375 9.777344 20.746094 9.667969 19.632812 C 9.5625 18.519531 10.476562 17.40625 11.710938 17.144531 C 12.949219 16.882812 14.039062 17.574219 14.144531 18.6875 C 14.25 19.800781 13.335938 20.914062 12.097656 21.175781 Z M 14.652344 18.539062 C 14.53125 17.242188 13.242188 16.441406 11.777344 16.75 C 10.316406 17.058594 9.226562 18.359375 9.351562 19.65625 C 9.472656 20.953125 10.761719 21.753906 12.222656 21.445312 C 13.6875 21.132812 14.777344 19.835938 14.652344 18.539062 "/>
<path style=" stroke:none;fill-rule:nonzero;fill:rgb(98.823529%,98.823529%,98.823529%);fill-opacity:1;" d="M 14.066406 18.777344 C 14.160156 19.757812 13.359375 20.738281 12.277344 20.964844 C 11.191406 21.195312 10.242188 20.585938 10.144531 19.609375 C 10.050781 18.628906 10.851562 17.648438 11.933594 17.421875 C 13.019531 17.191406 13.972656 17.796875 14.066406 18.777344 "/>
<path style=" stroke:none;fill-rule:nonzero;fill:rgb(21.176471%,19.607843%,32.941176%);fill-opacity:1;" d="M 13.910156 18.785156 C 13.617188 18.039062 12.839844 17.609375 12.179688 17.816406 C 11.824219 17.925781 11.582031 18.199219 11.46875 18.539062 L 12.390625 18.996094 L 11.546875 19.609375 C 11.859375 20.3125 12.601562 20.714844 13.242188 20.515625 C 13.902344 20.304688 14.203125 19.53125 13.910156 18.785156 "/>
<path style=" stroke:none;fill-rule:nonzero;fill:rgb(100%,100%,100%);fill-opacity:1;" d="M 13.230469 18.46875 C 13.394531 18.445312 13.585938 18.640625 13.65625 18.917969 C 13.726562 19.191406 13.652344 19.433594 13.484375 19.457031 C 13.320312 19.484375 13.125 19.28125 13.054688 19.007812 C 12.984375 18.734375 13.0625 18.496094 13.230469 18.46875 "/>
<path style=" stroke:none;fill-rule:nonzero;fill:rgb(21.176471%,19.607843%,32.941176%);fill-opacity:1;" d="M 10.546875 17.34375 C 9.390625 18.234375 9.027344 19.53125 9.808594 20.265625 C 9.738281 20.234375 9.886719 20.425781 9.824219 20.390625 C 8.59375 19.707031 8.390625 17.683594 9.523438 16.492188 C 10.492188 15.46875 13.410156 14.710938 13.386719 15.105469 C 13.269531 15.558594 12.414062 16.132812 11.355469 16.757812 C 11.011719 16.949219 10.765625 17.175781 10.546875 17.34375 "/>
<path style=" stroke:none;fill-rule:nonzero;fill:rgb(21.176471%,19.607843%,32.941176%);fill-opacity:1;" d="M 29.542969 29.917969 C 29.480469 30.21875 29.6875 30.46875 29.996094 30.46875 L 31.777344 30.46875 C 32.089844 30.46875 32.390625 30.21875 32.449219 29.917969 L 32.925781 27.472656 C 32.984375 27.167969 33.285156 26.917969 33.597656 26.917969 L 35.523438 26.917969 C 36.621094 26.917969 37.527344 26.804688 38.234375 26.570312 C 38.945312 26.34375 39.589844 25.953125 40.171875 25.410156 C 40.660156 24.960938 41.054688 24.46875 41.355469 23.925781 C 41.65625 23.386719 41.871094 22.792969 42 22.140625 C 42.304688 20.554688 42.003906 19.378906 41.304688 18.4375 C 40.421875 17.261719 38.179688 17.199219 38.179688 17.199219 C 37.871094 17.152344 37.367188 17.113281 37.058594 17.113281 L 32.59375 17.113281 C 32.28125 17.113281 31.980469 17.363281 31.921875 17.667969 Z M 36.519531 19.222656 C 37.625 19.222656 38.359375 19.425781 38.730469 19.832031 C 39.097656 20.242188 39.183594 20.941406 38.992188 21.933594 C 38.792969 22.96875 38.402344 23.707031 37.832031 24.148438 C 37.257812 24.589844 35.769531 24.75 35.769531 24.75 C 35.460938 24.785156 34.957031 24.8125 34.648438 24.8125 L 34.003906 24.8125 C 33.695312 24.8125 33.488281 24.5625 33.550781 24.257812 L 34.421875 19.777344 C 34.480469 19.472656 34.78125 19.222656 35.089844 19.222656 L 36.519531 19.222656 "/>
<path style="fill:none;stroke-width:5.333333;stroke-linecap:butt;stroke-linejoin:miter;stroke:rgb(100%,100%,100%);stroke-opacity:1;stroke-miterlimit:4;" d="M 128.143662 232.849878 C 127.872566 234.15449 128.770571 235.238844 130.109107 235.238844 L 137.835341 235.238844 C 139.190821 235.238844 140.49547 234.15449 140.749623 232.849878 L 142.816729 222.243548 C 143.070882 220.921993 144.375531 219.83764 145.731011 219.83764 L 154.084154 219.83764 C 158.845277 219.83764 162.776168 219.346292 165.842941 218.329711 C 168.926657 217.347016 171.722334 215.652714 174.246915 213.297635 C 176.364852 211.349188 178.076145 209.214367 179.380794 206.859288 C 180.685443 204.521151 181.617336 201.945812 182.176471 199.116328 C 183.498064 192.237463 182.193415 187.137614 179.160529 183.054347 C 175.331299 177.954498 165.605732 177.68341 165.605732 177.68341 C 164.267196 177.480094 162.081485 177.310663 160.742948 177.310663 L 141.376532 177.310663 C 140.021052 177.310663 138.716403 178.395017 138.462251 179.716572 Z M 158.404746 186.459893 C 163.199755 186.459893 166.385133 187.34093 167.994765 189.103004 C 169.587453 190.882021 169.96021 193.914822 169.129979 198.218348 C 168.265861 202.708248 166.571511 205.910479 164.097761 207.82504 C 161.607067 209.739601 155.151595 210.434265 155.151595 210.434265 C 153.813058 210.586752 151.627347 210.705353 150.288811 210.705353 L 147.493134 210.705353 C 146.154598 210.705353 145.256593 209.621 145.527689 208.299444 L 149.306088 188.865802 C 149.560241 187.544247 150.86489 186.459893 152.203426 186.459893 Z M 158.404746 186.459893 " transform="matrix(0.230546,0,0,0.230552,0.000000188238,-23.76608)"/>
<path style=" stroke:none;fill-rule:nonzero;fill:rgb(21.176471%,19.607843%,32.941176%);fill-opacity:1;" d="M 44.804688 14.117188 C 44.863281 13.8125 45.164062 13.5625 45.472656 13.5625 L 47.234375 13.5625 C 47.542969 13.5625 47.75 13.8125 47.6875 14.117188 L 47.214844 16.5625 C 47.15625 16.867188 47.363281 17.113281 47.671875 17.113281 L 49.113281 17.113281 C 49.421875 17.113281 49.929688 17.140625 50.238281 17.171875 C 50.238281 17.171875 52.339844 17.195312 53.023438 17.960938 C 53.578125 18.582031 53.820312 19.441406 53.574219 20.703125 L 52.476562 26.367188 C 52.417969 26.671875 52.117188 26.917969 51.804688 26.917969 L 50 26.917969 C 49.691406 26.917969 49.484375 26.671875 49.546875 26.367188 L 50.480469 21.5625 C 50.539062 21.257812 50.605469 20.757812 50.628906 20.445312 C 50.628906 20.445312 50.667969 19.878906 50.441406 19.632812 C 50.214844 19.390625 49.730469 19.269531 48.992188 19.269531 L 47.25 19.269531 C 46.941406 19.269531 46.640625 19.515625 46.578125 19.820312 L 45.308594 26.367188 C 45.25 26.671875 44.949219 26.917969 44.636719 26.917969 L 42.878906 26.917969 C 42.570312 26.917969 42.363281 26.671875 42.421875 26.367188 L 44.804688 14.117188 "/>
<path style="fill:none;stroke-width:5.333333;stroke-linecap:butt;stroke-linejoin:miter;stroke:rgb(100%,100%,100%);stroke-opacity:1;stroke-miterlimit:4;" d="M 194.341901 164.315368 C 194.596054 162.993813 195.900703 161.90946 197.239239 161.90946 L 204.880756 161.90946 C 206.219292 161.90946 207.117298 162.993813 206.846202 164.315368 L 204.796039 174.921698 C 204.541886 176.243253 205.439892 177.310663 206.778428 177.310663 L 213.030578 177.310663 C 214.369114 177.310663 216.571769 177.429265 217.910305 177.564809 C 217.910305 177.564809 227.025906 177.666467 229.991018 180.987298 C 232.396994 183.681238 233.447491 187.408702 232.380051 192.881297 L 227.618928 217.448674 C 227.364776 218.77023 226.060127 219.83764 224.704647 219.83764 L 216.876752 219.83764 C 215.538215 219.83764 214.64021 218.77023 214.911306 217.448674 L 218.960802 196.608761 C 219.214954 195.287206 219.502993 193.1185 219.604654 191.763058 C 219.604654 191.763058 219.774089 189.306321 218.791367 188.23891 C 217.808644 187.188443 215.70765 186.66321 212.505329 186.66321 L 204.94853 186.66321 C 203.609994 186.66321 202.305345 187.73062 202.034249 189.052175 L 196.527612 217.448674 C 196.27346 218.77023 194.968811 219.83764 193.613331 219.83764 L 185.988758 219.83764 C 184.650222 219.83764 183.752216 218.77023 184.006369 217.448674 Z M 194.341901 164.315368 " transform="matrix(0.230546,0,0,0.230552,0.000000188238,-23.76608)"/>
<path style=" stroke:none;fill-rule:nonzero;fill:rgb(21.176471%,19.607843%,32.941176%);fill-opacity:1;" d="M 53.722656 29.917969 C 53.664062 30.21875 53.871094 30.46875 54.179688 30.46875 L 55.960938 30.46875 C 56.269531 30.46875 56.574219 30.21875 56.632812 29.917969 L 57.105469 27.472656 C 57.167969 27.167969 57.46875 26.917969 57.777344 26.917969 L 59.707031 26.917969 C 60.804688 26.917969 61.707031 26.804688 62.417969 26.570312 C 63.128906 26.34375 63.773438 25.953125 64.355469 25.410156 C 64.84375 24.960938 65.234375 24.46875 65.539062 23.925781 C 65.839844 23.386719 66.054688 22.792969 66.179688 22.140625 C 66.488281 20.554688 66.210938 19.359375 65.484375 18.4375 C 64.585938 17.292969 62.359375 17.199219 62.359375 17.199219 C 62.054688 17.152344 61.550781 17.113281 61.238281 17.113281 L 56.773438 17.113281 C 56.464844 17.113281 56.164062 17.363281 56.105469 17.667969 Z M 60.703125 19.222656 C 61.808594 19.222656 62.542969 19.425781 62.914062 19.832031 C 63.28125 20.242188 63.367188 20.941406 63.175781 21.933594 C 62.972656 22.96875 62.585938 23.707031 62.011719 24.148438 C 61.4375 24.589844 59.953125 24.75 59.953125 24.75 C 59.644531 24.785156 59.140625 24.8125 58.828125 24.8125 L 58.1875 24.8125 C 57.875 24.8125 57.671875 24.5625 57.730469 24.257812 L 58.601562 19.777344 C 58.660156 19.472656 58.964844 19.222656 59.273438 19.222656 L 60.703125 19.222656 "/>
<path style="fill:none;stroke-width:5.333333;stroke-linecap:butt;stroke-linejoin:miter;stroke:rgb(100%,100%,100%);stroke-opacity:1;stroke-miterlimit:4;" d="M 233.023903 232.849878 C 232.769751 234.15449 233.667756 235.238844 235.006293 235.238844 L 242.732527 235.238844 C 244.071063 235.238844 245.392656 234.15449 245.646808 232.849878 L 247.696971 222.243548 C 247.968067 220.921993 249.272716 219.83764 250.611253 219.83764 L 258.98134 219.83764 C 263.742462 219.83764 267.65641 219.346292 270.740126 218.329711 C 273.823843 217.347016 276.619519 215.652714 279.1441 213.297635 C 281.262037 211.349188 282.956387 209.214367 284.27798 206.859288 C 285.582629 204.521151 286.514521 201.945812 287.056713 199.116328 C 288.395249 192.237463 287.192261 187.052899 284.040771 183.054347 C 280.143767 178.090042 270.485974 177.68341 270.485974 177.68341 C 269.164381 177.480094 266.97867 177.310663 265.62319 177.310663 L 246.256774 177.310663 C 244.918238 177.310663 243.613589 178.395017 243.359436 179.716572 Z M 263.301931 186.459893 C 268.096941 186.459893 271.282318 187.34093 272.89195 189.103004 C 274.484639 190.882021 274.857396 193.914822 274.027164 198.218348 C 273.146103 202.708248 271.468697 205.910479 268.978003 207.82504 C 266.487309 209.739601 260.04878 210.434265 260.04878 210.434265 C 258.710244 210.586752 256.524533 210.705353 255.169053 210.705353 L 252.39032 210.705353 C 251.03484 210.705353 250.153778 209.621 250.407931 208.299444 L 254.18633 188.865802 C 254.440483 187.544247 255.762075 186.459893 257.100612 186.459893 Z M 263.301931 186.459893 " transform="matrix(0.230546,0,0,0.230552,0.000000188238,-23.76608)"/>
<path style=" stroke:none;fill-rule:nonzero;fill:rgb(21.176471%,19.607843%,32.941176%);fill-opacity:1;" d="M 29.542969 29.917969 C 29.480469 30.21875 29.6875 30.46875 29.996094 30.46875 L 31.777344 30.46875 C 32.089844 30.46875 32.390625 30.21875 32.449219 29.917969 L 32.925781 27.472656 C 32.984375 27.167969 33.285156 26.917969 33.597656 26.917969 L 35.523438 26.917969 C 36.621094 26.917969 37.527344 26.804688 38.234375 26.570312 C 38.945312 26.34375 39.589844 25.953125 40.171875 25.410156 C 40.660156 24.960938 41.054688 24.46875 41.355469 23.925781 C 41.65625 23.386719 41.871094 22.792969 42 22.140625 C 42.304688 20.554688 42.003906 19.378906 41.304688 18.4375 C 40.421875 17.261719 38.179688 17.199219 38.179688 17.199219 C 37.871094 17.152344 37.367188 17.113281 37.058594 17.113281 L 32.59375 17.113281 C 32.28125 17.113281 31.980469 17.363281 31.921875 17.667969 Z M 36.519531 19.222656 C 37.625 19.222656 38.359375 19.425781 38.730469 19.832031 C 39.097656 20.242188 39.183594 20.941406 38.992188 21.933594 C 38.792969 22.96875 38.402344 23.707031 37.832031 24.148438 C 37.257812 24.589844 35.769531 24.75 35.769531 24.75 C 35.460938 24.785156 34.957031 24.8125 34.648438 24.8125 L 34.003906 24.8125 C 33.695312 24.8125 33.488281 24.5625 33.550781 24.257812 L 34.421875 19.777344 C 34.480469 19.472656 34.78125 19.222656 35.089844 19.222656 L 36.519531 19.222656 "/>
<path style=" stroke:none;fill-rule:nonzero;fill:rgb(21.176471%,19.607843%,32.941176%);fill-opacity:1;" d="M 44.804688 14.117188 C 44.863281 13.8125 45.164062 13.5625 45.472656 13.5625 L 47.234375 13.5625 C 47.542969 13.5625 47.75 13.8125 47.6875 14.117188 L 47.214844 16.5625 C 47.15625 16.867188 47.363281 17.113281 47.671875 17.113281 L 49.113281 17.113281 C 49.421875 17.113281 49.929688 17.140625 50.238281 17.171875 C 50.238281 17.171875 52.339844 17.195312 53.023438 17.960938 C 53.578125 18.582031 53.820312 19.441406 53.574219 20.703125 L 52.476562 26.367188 C 52.417969 26.671875 52.117188 26.917969 51.804688 26.917969 L 50 26.917969 C 49.691406 26.917969 49.484375 26.671875 49.546875 26.367188 L 50.480469 21.5625 C 50.539062 21.257812 50.605469 20.757812 50.628906 20.445312 C 50.628906 20.445312 50.667969 19.878906 50.441406 19.632812 C 50.214844 19.390625 49.730469 19.269531 48.992188 19.269531 L 47.25 19.269531 C 46.941406 19.269531 46.640625 19.515625 46.578125 19.820312 L 45.308594 26.367188 C 45.25 26.671875 44.949219 26.917969 44.636719 26.917969 L 42.878906 26.917969 C 42.570312 26.917969 42.363281 26.671875 42.421875 26.367188 L 44.804688 14.117188 "/>
<path style=" stroke:none;fill-rule:nonzero;fill:rgb(21.176471%,19.607843%,32.941176%);fill-opacity:1;" d="M 53.722656 29.917969 C 53.664062 30.21875 53.871094 30.46875 54.179688 30.46875 L 55.960938 30.46875 C 56.269531 30.46875 56.574219 30.21875 56.632812 29.917969 L 57.105469 27.472656 C 57.167969 27.167969 57.46875 26.917969 57.777344 26.917969 L 59.707031 26.917969 C 60.804688 26.917969 61.707031 26.804688 62.417969 26.570312 C 63.128906 26.34375 63.773438 25.953125 64.355469 25.410156 C 64.84375 24.960938 65.234375 24.46875 65.539062 23.925781 C 65.839844 23.386719 66.054688 22.792969 66.179688 22.140625 C 66.488281 20.554688 66.210938 19.359375 65.484375 18.4375 C 64.585938 17.292969 62.359375 17.199219 62.359375 17.199219 C 62.054688 17.152344 61.550781 17.113281 61.238281 17.113281 L 56.773438 17.113281 C 56.464844 17.113281 56.164062 17.363281 56.105469 17.667969 Z M 60.703125 19.222656 C 61.808594 19.222656 62.542969 19.425781 62.914062 19.832031 C 63.28125 20.242188 63.367188 20.941406 63.175781 21.933594 C 62.972656 22.96875 62.585938 23.707031 62.011719 24.148438 C 61.4375 24.589844 59.953125 24.75 59.953125 24.75 C 59.644531 24.785156 59.140625 24.8125 58.828125 24.8125 L 58.1875 24.8125 C 57.875 24.8125 57.671875 24.5625 57.730469 24.257812 L 58.601562 19.777344 C 58.660156 19.472656 58.964844 19.222656 59.273438 19.222656 L 60.703125 19.222656 "/>
<g clip-path="url(#clip21)" clip-rule="nonzero">
<g clip-path="url(#clip22)" clip-rule="nonzero">
<path style=" stroke:none;fill-rule:nonzero;fill:url(#linear10);" d="M 17.578125 6.007812 C 17.578125 6.007812 22.851562 2.382812 26.183594 1.140625 C 27.242188 0.742188 34.902344 -1.28125 36.144531 11.945312 C 36.824219 19.183594 35.601562 24.1875 29.664062 25.09375 C 26.109375 25.636719 26.660156 28.285156 26.660156 28.285156 "/>
</g>
</g>
<path style=" stroke:none;fill-rule:nonzero;fill:rgb(21.176471%,19.607843%,32.941176%);fill-opacity:1;" d="M 25.941406 0.542969 C 22.574219 1.800781 17.410156 5.335938 17.191406 5.484375 C 16.894531 5.691406 16.824219 6.089844 17.039062 6.378906 C 17.25 6.667969 17.667969 6.734375 17.964844 6.527344 C 18.015625 6.496094 23.207031 2.9375 26.421875 1.738281 C 26.519531 1.699219 28.886719 0.84375 31.15625 2.203125 C 33.515625 3.621094 35.011719 7.007812 35.484375 12.003906 C 36.230469 19.988281 34.457031 23.710938 29.558594 24.460938 C 28.171875 24.671875 27.160156 25.203125 26.554688 26.046875 C 25.757812 27.148438 25.996094 28.359375 26.007812 28.410156 C 26.082031 28.753906 26.425781 28.976562 26.785156 28.910156 C 27.144531 28.84375 27.378906 28.507812 27.3125 28.164062 C 27.3125 28.15625 27.179688 27.410156 27.652344 26.765625 C 28.046875 26.230469 28.757812 25.878906 29.765625 25.726562 C 37.050781 24.613281 37.355469 17.746094 36.808594 11.886719 C 36.292969 6.398438 34.625 2.773438 31.855469 1.113281 C 29.078125 -0.550781 26.253906 0.425781 25.941406 0.542969 "/>
<g clip-path="url(#clip23)" clip-rule="nonzero">
<g clip-path="url(#clip24)" clip-rule="nonzero">
<path style=" stroke:none;fill-rule:nonzero;fill:url(#linear11);" d="M 22.972656 5.046875 C 28.941406 1.316406 32.257812 3.222656 32.257812 3.222656 C 29.660156 0.851562 26.742188 1.636719 26.09375 1.878906 C 22.777344 3.121094 16.367188 7.714844 16.367188 7.714844 C 16.367188 7.714844 15.5 9.25 17.226562 8.917969 C 17.226562 8.917969 20.984375 6.292969 22.972656 5.046875 "/>
</g>
</g>
<path style=" stroke:none;fill-rule:nonzero;fill:rgb(21.176471%,19.607843%,32.941176%);fill-opacity:1;" d="M 20.820312 22.664062 C 20.765625 25.695312 19.761719 28.457031 18.199219 29.863281 C 17.488281 30.503906 16.695312 30.820312 15.90625 30.78125 C 15.660156 30.769531 15.453125 30.949219 15.441406 31.1875 C 15.429688 31.421875 15.617188 31.625 15.859375 31.636719 C 16.894531 31.6875 17.914062 31.292969 18.804688 30.492188 C 20.539062 28.929688 21.648438 25.9375 21.703125 22.679688 C 21.710938 22.445312 21.515625 22.25 21.269531 22.246094 C 21.023438 22.242188 20.824219 22.429688 20.820312 22.664062 "/>
<path style=" stroke:none;fill-rule:nonzero;fill:rgb(21.176471%,19.607843%,32.941176%);fill-opacity:1;" d="M 22.738281 20.5 C 22.40625 21.265625 21.820312 21.753906 21.136719 21.835938 C 20.46875 21.914062 19.789062 21.601562 19.320312 21 C 19.175781 20.8125 18.894531 20.773438 18.699219 20.914062 C 18.503906 21.054688 18.464844 21.324219 18.613281 21.511719 C 19.273438 22.363281 20.257812 22.800781 21.246094 22.6875 C 22.253906 22.5625 23.097656 21.890625 23.558594 20.832031 C 23.652344 20.613281 23.542969 20.367188 23.320312 20.273438 C 23.09375 20.183594 22.835938 20.285156 22.738281 20.5 "/>
</g>
</svg>
